<?xml version="1.0" encoding="utf-8"?>
<svg version="1.1" x="0px" y="0px" viewBox="0 0 107.717 107.717" style="enable-background:new 0 0 107.717 107.717;" xmlns="http://www.w3.org/2000/svg">
  <style>
		.align-center{text-anchor:middle;}
    	.align-left{text-anchor:start;}
    	.align-right{text-anchor:end;}
    	.font-type-1{font-family:"Source Sans 3";}
    	.text-prop{font-size:4.4px; fill:#000000; letter-spacing: 0.01em; text-rendering="optimizeLegibility";}
	</style>
  <g id="boden" display="">
    <circle display="inline" fill="#FFFFFF" stroke="#E6007E" stroke-width="0.25" stroke-miterlimit="10" cx="53.858" cy="53.858" r="53.858"/>
  </g>
  <g id="kante" display="">
    <circle display="inline" fill="#FFFFFF" stroke="#009FE3" stroke-width="0.25" stroke-miterlimit="10" cx="53.858" cy="53.858" r="43.654"/>
  </g>
  <g id="mitte" display="">
    <circle display="inline" fill-rule="evenodd" clip-rule="evenodd" fill="#FFED00" cx="53.858" cy="53.858" r="1.417"/>
  </g>
  <g id="Ebene_4" display="">
    <g display="inline">
      <path fill="none" d="M64.089,94.158c-0.819-0.313-1.639-0.665-2.431-1.006l-0.51-0.218c-1.452-0.621-3.08-0.779-5.135-0.506 c-0.774,0.104-1.532,0.182-2.261-0.017c-0.621-0.169-1.267-0.41-1.921-0.717c-0.936-0.438-1.844-0.499-2.775-0.187 c-1.485,0.499-2.884,1.271-4.159,2.294c-0.475,0.381-0.845,0.839-1.112,1.364c3.23,0.785,6.601,1.211,10.072,1.211 c4.219,0,8.29-0.623,12.137-1.768C65.307,94.515,64.665,94.379,64.089,94.158z"/>
      <path fill="none" d="M90.433,36.811l-0.758-0.043c-0.634-0.036-1.268-0.071-1.9-0.118c-0.35-0.026-0.698-0.06-1.048-0.093 c-0.54-0.052-1.098-0.105-1.646-0.128c-0.336-0.019-0.718,0.053-1.058,0.189c-0.621,0.247-0.979,0.745-1.094,1.523 c-0.138,0.932-0.034,1.868,0.085,2.746c0.046,0.344,0.075,0.694,0.104,1.033c0.019,0.225,0.037,0.45,0.061,0.675 c0.074,0.713,0.155,1.426,0.237,2.139c0.014,0.124,0.025,0.247,0.037,0.371c0.028,0.307,0.058,0.625,0.125,0.925 c0.287,1.266,0.994,2.271,2.163,3.071c1.093,0.75,2.301,1.229,3.231,1.562c0.353,0.126,0.705,0.251,1.058,0.376 c1.791,0.636,3.644,1.293,5.414,2.083c0.294,0.131,0.612,0.226,0.923,0.318c-0.053-5.464-1.139-10.678-3.068-15.464 c-0.16-0.135-0.317-0.272-0.501-0.386C92.028,37.114,91.255,36.86,90.433,36.811z M92.342,48.979 c-0.076,0.184-0.277,0.289-0.557,0.39c-0.111,0.04-0.227,0.044-0.339,0.047l-0.051,0.002c-0.076,0.003-0.152,0.005-0.229,0.005 c-0.922,0-1.852-0.228-2.836-0.694c-0.655-0.31-1.354-0.75-1.57-1.656l0.221-0.053c0.193,0.813,0.84,1.217,1.447,1.504 c1.031,0.489,2.002,0.706,2.957,0.668l0.053-0.002c0.095-0.003,0.192-0.006,0.27-0.034c0.26-0.094,0.387-0.173,0.424-0.264 c0.035-0.086,0.004-0.224-0.101-0.444c-0.26-0.546-0.71-1.013-1.415-1.467c-0.87-0.56-1.681-0.816-2.513-0.8 c-0.73,0.019-1.097,0.29-1.119,0.831l-0.227-0.01c0.02-0.463,0.268-1.02,1.34-1.047c0.033-0.001,0.066-0.001,0.1-0.001 c0.835,0,1.667,0.275,2.542,0.838c0.742,0.478,1.218,0.974,1.497,1.56C92.374,48.642,92.405,48.824,92.342,48.979z"/>
      <path fill="none" d="M90.085,34.333l-0.609-0.211c-0.744-0.256-1.515-0.521-2.253-0.832c-0.365-0.153-0.725-0.318-1.085-0.483 c-0.875-0.402-1.781-0.818-2.732-1.031c-0.677-0.152-1.386-0.238-2.071-0.321l-0.741-0.091c-0.833-0.105-1.695-0.213-2.542-0.254 c-0.651-0.032-1.331,0.006-1.986,0.044l-0.449,0.025c-0.998,0.052-1.992,0.352-2.955,0.89c-0.362,0.203-0.686,0.45-0.935,0.715 c-0.306,0.325-0.326,0.652-0.065,1.03c0.391,0.566,0.979,0.979,1.797,1.264c0.768,0.268,1.56,0.516,2.325,0.756l0.759,0.239 c1.09,0.346,2.338,0.831,3.328,1.805c0.576,0.567,1.035,1.297,1.364,2.17c0.398,1.056,0.65,2.22,0.818,3.776 c0.131,1.202,0.294,2.175,0.514,3.062c0.346,1.395,1.257,2.52,2.783,3.44c1.311,0.789,2.764,1.335,4.046,1.816 c0.979,0.368,1.964,0.765,2.916,1.149c0.786,0.316,1.572,0.634,2.363,0.938c0.535,0.205,1.095,0.381,1.637,0.551 c0.015,0.005,0.029,0.009,0.044,0.014c0.007-0.312,0.024-0.621,0.024-0.935c0-0.061-0.004-0.121-0.005-0.182 c-0.003-0.001-0.007-0.002-0.01-0.003c-0.337-0.099-0.685-0.201-1.011-0.346c-1.763-0.786-3.611-1.441-5.398-2.076 c-0.353-0.125-0.705-0.25-1.058-0.376c-0.943-0.338-2.17-0.824-3.284-1.588c-1.217-0.835-1.955-1.885-2.255-3.209 c-0.071-0.314-0.102-0.64-0.131-0.954c-0.011-0.122-0.021-0.244-0.035-0.365c-0.082-0.713-0.163-1.427-0.237-2.142 c-0.024-0.226-0.043-0.453-0.062-0.68c-0.027-0.336-0.057-0.683-0.102-1.021c-0.121-0.894-0.228-1.848-0.085-2.809 c0.128-0.865,0.531-1.421,1.234-1.701c0.369-0.148,0.771-0.222,1.151-0.205c0.554,0.023,1.115,0.077,1.657,0.129 c0.348,0.033,0.695,0.066,1.044,0.092c0.631,0.047,1.263,0.083,1.896,0.118l0.759,0.043c0.86,0.051,1.668,0.316,2.471,0.811 c0.082,0.05,0.144,0.115,0.221,0.169c-0.371-0.894-0.775-1.77-1.205-2.632c-0.239-0.078-0.479-0.159-0.716-0.232 C90.838,34.582,90.459,34.463,90.085,34.333z"/>
      <path fill="none" d="M19.908,67.537c0.534-0.405,1.053-0.854,1.555-1.289l0.101-0.088c0.988-0.854,2.193-1.306,3.245-1.662 c1.488-0.503,2.556-1.129,3.36-1.972c0.69-0.723,1.195-1.563,1.598-2.291c0.282-0.511,0.577-1.014,0.875-1.514 c0.505-0.846,1.383-1.086,2.091-1.2c0.809-0.132,1.631-0.212,2.444-0.24c0.488-0.013,0.981,0.025,1.457,0.065 c0.183,0.016,0.365,0.03,0.547,0.043l0.255,0.017c0.983,0.067,1.999,0.136,3.004,0.043l0.409-0.04 c0.984-0.099,2.002-0.202,3.009,0.148c0.626,0.219,1.12,0.523,1.508,0.931c1.643,1.717,3.334,3.486,4.729,5.461 c0.887,1.257,2.082,2.102,3.242,2.827c1.023,0.641,2.192,1.165,3.677,1.649c0.562,0.183,1.124,0.392,1.667,0.594l0.642,0.236 c1.239,0.452,2.559,0.464,4.031,0.036c0.221-0.064,0.441-0.132,0.661-0.199c0.616-0.188,1.253-0.383,1.899-0.504 c1.124-0.213,2.074-0.105,2.907,0.323c0.473,0.244,0.942,0.497,1.411,0.749c0.546,0.294,1.092,0.588,1.645,0.868 c0.65,0.331,1.353,0.511,2.089,0.536c0.277,0.01,0.554,0.017,0.831,0.022c0.549,0.012,1.116,0.024,1.675,0.066 c0.788,0.059,1.585,0.15,2.355,0.239l1.286,0.143c0.659,0.069,1.341,0.141,2.007,0.258c0.862,0.149,1.774,0.351,2.872,0.634 c0.562,0.145,1.12,0.305,1.679,0.464c0.709,0.203,1.441,0.413,2.168,0.586c0.632,0.151,1.298,0.231,1.942,0.309l0.45,0.055 c0.052,0.006,0.097,0.015,0.148,0.022c2.185-4.09,3.722-8.578,4.471-13.328c-1.71-0.391-3.347-1.03-4.881-1.672 c-0.503-0.21-1.005-0.423-1.508-0.636c-0.594-0.251-1.188-0.502-1.784-0.75c-0.521-0.216-1.043-0.429-1.565-0.642 c-0.972-0.395-1.976-0.803-2.953-1.231c-1.505-0.659-2.886-1.55-4.104-2.649c-1.86-1.678-2.897-3.94-3.17-6.915 c-0.063-0.705-0.252-1.313-0.561-1.808c-0.509-0.816-1.361-1.122-2.207-1.33c-0.498-0.123-1.001-0.23-1.503-0.337 c-0.518-0.11-1.035-0.22-1.548-0.347c-1.918-0.477-3.843-1.214-5.719-2.19c-2.114-1.099-3.769-1.844-5.362-2.416 c-1.054-0.378-2.081-0.754-3.066-1.2c-1.983-0.899-3.715-2.131-5.003-3.105c-1.298-0.981-2.607-1.62-4.001-1.951 c-0.306-0.073-0.613-0.144-0.92-0.215c-1.102-0.254-2.241-0.518-3.333-0.876c-1.912-0.628-3.576-1.365-5.087-2.253 c-0.911-0.535-1.833-1.053-2.756-1.57c-0.786-0.441-1.572-0.881-2.351-1.333c-1.912-1.109-3.573-1.846-5.226-2.317 c-0.611-0.174-1.219-0.355-1.829-0.531c-8.64,7.783-14.075,19.055-14.075,31.599c0,5.164,0.922,10.113,2.609,14.692 c0.147,0.04,0.295,0.071,0.441,0.113C16.357,69.226,18.162,68.86,19.908,67.537z"/>
      <path fill="none" d="M49.196,14.382c0.274,0.042,0.548,0.083,0.822,0.124c1.039,0.154,2.113,0.313,3.148,0.566 c1.679,0.411,3.091,1.402,4.133,2.221c0.756,0.594,1.521,1.195,2.396,1.557c0.545,0.225,1.168,0.338,1.717,0.438 c0.737,0.133,1.492,0.042,2.222-0.045c0.314-0.038,0.64-0.077,0.961-0.099c0.94-0.062,1.975-0.092,3.258-0.084 c2.514,0.009,4.735,0.502,6.794,1.505c1.175,0.573,2.43,1.173,3.72,1.648c1.06,0.391,2.219,0.608,3.446,0.647 c0.271,0.009,0.543,0.014,0.815,0.019c0.114,0.002,0.23,0.006,0.345,0.008c-0.481-0.453-0.973-0.894-1.476-1.324 c-0.33-0.038-0.656-0.064-0.992-0.119c-1.275-0.212-2.58-0.67-4.104-1.444c-1.526-0.773-3.315-1.622-5.251-1.91 c-1.018-0.152-2.053-0.306-3.07-0.346c-1.538-0.06-2.892-0.019-4.131,0.127c-0.628,0.074-1.313,0.075-2.22,0 c-0.524-0.042-1.036-0.2-1.515-0.358c-0.805-0.266-1.472-0.764-2.116-1.245l-0.282-0.209c-1.419-1.045-2.66-1.729-3.908-2.151 c-1.088-0.369-2.245-0.521-3.363-0.669c-0.254-0.033-0.509-0.067-0.763-0.103c-1.155-0.163-2.203-0.557-3.183-1.166 c-0.614,0.106-1.224,0.222-1.828,0.353c0.53,0.405,1.128,0.796,1.813,1.187C47.34,13.941,48.195,14.227,49.196,14.382z"/>
      <path fill="none" d="M40.472,93.729c-1.838-1.145-3.883-2.089-6.077-2.809c-0.577-0.189-1.145-0.242-1.701-0.189 c2.685,1.544,5.548,2.814,8.56,3.747C41.04,94.185,40.789,93.925,40.472,93.729z"/>
      <path fill="none" d="M29.135,86.133c0.266-0.231,0.532-0.464,0.811-0.679c0.407-0.316,0.814-0.631,1.282-0.815 c1.124-0.438,2.251-0.21,3.255,0.668c0.458,0.399,0.886,0.841,1.3,1.269c0.245,0.252,0.49,0.504,0.741,0.749 c0.837,0.816,1.817,1.26,2.915,1.318c1.591,0.085,3,0.111,4.304,0.076c1.342-0.034,2.677-0.37,4.083-1.026 c1.078-0.504,1.985-0.751,2.854-0.776c0.965-0.03,1.946,0.253,2.968,0.858c1.375,0.813,2.83,1.344,4.445,1.619 c1.093,0.187,2.188,0.449,3.247,0.703c0.718,0.172,1.437,0.344,2.158,0.494c0.87,0.181,1.76,0.277,2.592,0.355 c0.452,0.042,0.906,0.062,1.361,0.082c0.489,0.021,0.995,0.043,1.493,0.093l0.244,0.025c1.235,0.123,2.508,0.26,3.704,0.731 c1.079-0.541,2.135-1.12,3.158-1.748c-1.241-0.775-2.612-1.274-4.089-1.458c-0.709-0.088-1.439-0.115-2.146-0.142 c-0.193-0.008-0.387-0.015-0.58-0.023c-0.543-0.023-1.086-0.038-1.629-0.053c-0.355-0.009-0.711-0.019-1.066-0.03 c-0.674-0.022-1.349-0.048-2.023-0.08c-0.328-0.017-0.709-0.037-1.078-0.081l-0.119-0.014c-0.988-0.118-2.012-0.241-3.015-0.384 c-1.221-0.175-2.188-0.457-3.045-0.887c-0.557-0.279-1.11-0.581-1.647-0.874c-0.576-0.314-1.172-0.639-1.77-0.935 c-1.463-0.725-2.809-0.904-4.118-0.552c-0.847,0.229-1.807,0.487-2.727,0.795c-1.068,0.356-2.228,0.537-3.448,0.537 c-1.048,0-2.083-0.126-2.869-0.235c-0.877-0.122-1.593-0.371-2.187-0.762c-0.733-0.481-1.472-0.982-2.186-1.467 c-0.369-0.25-0.738-0.501-1.109-0.75c-0.23-0.155-0.458-0.314-0.685-0.474c-0.691-0.484-1.406-0.985-2.189-1.35 c-0.915-0.425-1.741-0.471-2.524-0.139c-0.474,0.2-0.945,0.47-1.362,0.777l-0.201,0.149c-0.816,0.605-1.661,1.232-2.65,1.598 c-0.556,0.206-1.174,0.417-1.826,0.594c1.189,1.192,2.456,2.304,3.779,3.349c0.28-0.112,0.552-0.251,0.81-0.45 C28.62,86.582,28.877,86.357,29.135,86.133z"/>
      <path fill="none" d="M28.103,81.519l0.201-0.148c0.431-0.319,0.918-0.597,1.409-0.805c0.846-0.358,1.732-0.311,2.708,0.143 c0.801,0.372,1.524,0.879,2.224,1.369c0.226,0.158,0.452,0.317,0.682,0.472c0.37,0.249,0.74,0.499,1.109,0.75 c0.713,0.483,1.451,0.983,2.183,1.465c0.565,0.372,1.25,0.609,2.093,0.727c0.778,0.108,1.804,0.233,2.837,0.233 c1.196,0,2.332-0.177,3.376-0.525c0.927-0.31,1.89-0.569,2.741-0.799c1.363-0.368,2.763-0.184,4.277,0.567 c0.601,0.298,1.199,0.623,1.777,0.938c0.535,0.292,1.088,0.593,1.641,0.87c0.835,0.419,1.78,0.694,2.975,0.865 c1.002,0.143,2.023,0.265,3.011,0.383l0.119,0.015c0.361,0.043,0.738,0.063,1.062,0.079c0.673,0.032,1.346,0.058,2.02,0.08 c0.354,0.012,0.71,0.021,1.064,0.03c0.544,0.015,1.089,0.029,1.633,0.053c0.192,0.009,0.386,0.016,0.579,0.023 c0.711,0.026,1.446,0.054,2.164,0.144c1.548,0.192,2.981,0.719,4.275,1.546c1.19-0.739,2.339-1.536,3.446-2.386 c-0.109,0.005-0.218,0.017-0.33,0.004c-0.56-0.068-1.165-0.236-1.852-0.514c-0.578-0.234-1.156-0.498-1.714-0.752 c-0.517-0.235-1.052-0.479-1.584-0.698c-1.166-0.479-2.251-0.713-3.313-0.713c-0.029,0-0.059,0-0.089,0 c-2.484,0.03-4.969,0.056-7.453,0.08c-0.61,0.006-1.219,0.004-1.826-0.001c-0.784-0.008-1.561-0.199-2.308-0.569 c-1.025-0.51-1.755-1.367-2.461-2.197l-0.037-0.045c-0.696-0.82-1.494-1.638-2.609-2.069c-0.864-0.333-1.712-0.449-2.519-0.34 c-1.161,0.155-2.244,0.624-3.058,1.015c-1.82,0.874-3.683,1.247-5.688,1.131l-0.513-0.027c-0.812-0.041-1.651-0.083-2.473-0.226 c-1.039-0.179-1.918-0.471-2.688-0.895c-1.1-0.604-2.062-1.467-2.858-2.562c-0.658-0.903-1.305-1.786-1.982-2.65 c-0.823-1.053-1.532-1.25-2.713-0.753c-0.66,0.277-1.315,0.601-1.949,0.913c-0.261,0.129-0.523,0.258-0.785,0.385 c-0.87,0.417-1.78,0.9-2.55,1.606c-0.159,0.146-0.316,0.295-0.474,0.443c-0.334,0.317-0.68,0.645-1.043,0.942 c-0.785,0.644-1.487,0.851-2.274,0.672c-0.183-0.041-0.356-0.099-0.526-0.164c1.094,1.434,2.276,2.797,3.541,4.08 c0.688-0.181,1.343-0.401,1.927-0.618C26.468,82.732,27.299,82.115,28.103,81.519z"/>
      <path fill="none" d="M22.698,78.94c0.356-0.292,0.699-0.617,1.03-0.931c0.158-0.15,0.316-0.3,0.477-0.447 c0.792-0.725,1.72-1.219,2.604-1.644c0.262-0.126,0.523-0.254,0.783-0.383c0.637-0.314,1.295-0.64,1.961-0.919 c1.282-0.54,2.089-0.316,2.98,0.821c0.679,0.868,1.327,1.753,1.987,2.658c0.777,1.067,1.714,1.907,2.784,2.495 c0.747,0.411,1.603,0.696,2.616,0.871c0.809,0.139,1.641,0.182,2.446,0.222l0.514,0.027c1.965,0.111,3.792-0.251,5.578-1.109 c0.829-0.397,1.934-0.875,3.125-1.034c0.846-0.111,1.73,0.007,2.631,0.354c1.166,0.45,2.019,1.331,2.7,2.134l0.037,0.044 c0.691,0.812,1.405,1.653,2.39,2.142c0.715,0.354,1.458,0.538,2.208,0.546c0.606,0.006,1.213,0.008,1.822,0.001 c2.484-0.024,4.969-0.05,7.453-0.08c1.121-0.009,2.264,0.225,3.49,0.73c0.537,0.221,1.073,0.465,1.592,0.701 c0.556,0.253,1.131,0.515,1.706,0.747c0.667,0.271,1.253,0.434,1.793,0.5c0.23,0.029,0.452-0.005,0.671-0.069 c0.51-0.4,1.011-0.812,1.502-1.235c0.318-0.381,0.658-0.757,1.127-1.006c0.005-0.003,0.01-0.004,0.015-0.007 c1.631-1.509,3.14-3.147,4.519-4.894c-1.384-0.252-2.654-0.624-3.856-1.144c-1.269-0.551-2.532-0.83-3.756-0.831 c-0.012,0-0.023,0-0.036,0c-0.416,0-0.84,0.02-1.25,0.038c-0.298,0.014-0.595,0.027-0.892,0.034 c-1.521,0.035-2.896,0.061-4.203,0.079c-0.301,0.005-0.595,0.001-0.893-0.002c-0.46-0.007-0.937-0.012-1.403,0.014 c-0.584,0.03-1.164,0.109-1.724,0.234c-0.666,0.149-1.373,0.343-2.292,0.628c-1.201,0.371-2.286,0.424-3.314,0.157 c-0.961-0.248-1.942-0.485-2.892-0.715c-2.71-0.653-5.104-1.443-7.319-2.415c-1.486-0.651-2.991-0.708-4.471-0.169l-0.255,0.093 c-1.057,0.387-2.15,0.786-3.241,1.13c-0.833,0.262-1.521,0.412-2.163,0.473c-0.917,0.084-1.782,0.038-2.572-0.14 c-2.049-0.458-3.407-1.453-4.149-3.044c-0.229-0.492-0.411-1.015-0.586-1.519c-0.121-0.35-0.247-0.71-0.386-1.057 c-0.049-0.121-0.097-0.245-0.144-0.369c-0.186-0.485-0.377-0.987-0.686-1.372c-0.924-1.155-2.201-1.576-3.794-1.244 c-1.049,0.217-2.021,0.635-2.832,1.016c-1.421,0.665-2.723,1.52-3.982,2.346c-2.164,1.42-4.531,2.175-7.238,2.31 c-0.035,0.002-0.07,0.004-0.105,0.006c0.89,1.577,1.869,3.097,2.945,4.54c0.278,0.136,0.56,0.245,0.864,0.314 C21.33,79.729,21.973,79.536,22.698,78.94z"/>
      <path fill="none" d="M47.273,15.085c0.732,0.227,1.388,0.381,2.003,0.47c0.315,0.046,0.631,0.085,0.947,0.124 c0.98,0.121,1.994,0.246,2.954,0.575c1.038,0.356,2.058,0.923,3.21,1.787l0.429,0.324c0.661,0.501,1.345,1.02,2.064,1.442 c1.166,0.685,2.541,0.914,4.079,0.678c0.515-0.078,1.025-0.132,1.518-0.159c0.289-0.016,0.578-0.034,0.867-0.053 c0.901-0.057,1.836-0.115,2.75-0.095c2.178,0.05,4.061,0.463,5.756,1.263l0.68,0.323c0.837,0.398,1.702,0.81,2.569,1.174 c0.981,0.413,2.048,0.701,3.258,0.882c1.018,0.153,2.059,0.185,3.065,0.215c0.252,0.007,0.505,0.016,0.758,0.025 c-0.312-0.317-0.632-0.626-0.953-0.933c-0.202-0.005-0.405-0.02-0.603-0.024c-0.273-0.005-0.547-0.01-0.819-0.019 c-1.252-0.04-2.435-0.262-3.517-0.661c-1.301-0.479-2.562-1.082-3.741-1.657c-2.026-0.989-4.217-1.474-6.694-1.483 c-1.268,0.002-2.307,0.022-3.242,0.084c-0.316,0.021-0.638,0.06-0.949,0.097c-0.745,0.091-1.516,0.184-2.29,0.043 c-0.56-0.102-1.194-0.217-1.762-0.451c-0.906-0.374-1.683-0.984-2.435-1.575c-1.04-0.817-2.425-1.792-4.062-2.191 c-1.025-0.25-2.094-0.409-3.128-0.563c-0.275-0.041-0.549-0.082-0.824-0.124c-1.029-0.159-1.909-0.454-2.689-0.899 c-0.758-0.433-1.404-0.868-1.979-1.32c-0.399,0.09-0.8,0.175-1.195,0.276c0.413,0.322,0.83,0.623,1.228,0.903 C45.49,14.243,46.304,14.786,47.273,15.085z"/>
      <path fill="none" d="M44.756,93.625c1.295-1.039,2.718-1.823,4.228-2.331c0.99-0.333,1.953-0.269,2.944,0.196 c0.642,0.302,1.275,0.538,1.884,0.703c0.688,0.188,1.391,0.116,2.172,0.011c2.09-0.282,3.762-0.116,5.254,0.521l0.51,0.219 c0.79,0.34,1.606,0.69,2.422,1.003c0.7,0.267,1.477,0.432,2.358,0.51c2.015-0.628,3.965-1.403,5.839-2.311 c-1.038-0.345-2.143-0.47-3.221-0.577l-0.245-0.024c-0.485-0.05-0.985-0.071-1.469-0.092c-0.462-0.021-0.923-0.041-1.382-0.083 c-0.845-0.079-1.749-0.178-2.639-0.363c-0.727-0.151-1.449-0.324-2.171-0.497c-1.053-0.252-2.141-0.513-3.221-0.696 c-1.667-0.285-3.168-0.833-4.589-1.674c-0.95-0.562-1.841-0.84-2.739-0.798c-0.809,0.023-1.663,0.257-2.687,0.735 c-1.459,0.683-2.851,1.031-4.252,1.067c-1.316,0.034-2.736,0.007-4.337-0.078c-1.203-0.063-2.276-0.548-3.189-1.438 c-0.254-0.248-0.502-0.503-0.75-0.758c-0.408-0.421-0.83-0.856-1.274-1.244c-0.891-0.777-1.839-0.977-2.821-0.592 c-0.411,0.161-0.793,0.457-1.163,0.744c-0.287,0.222-0.546,0.448-0.806,0.674c-0.264,0.23-0.527,0.46-0.803,0.674 c-0.217,0.169-0.446,0.306-0.681,0.42c1.409,1.086,2.887,2.084,4.427,2.99c0.686-0.12,1.392-0.067,2.108,0.168 c2.211,0.725,4.273,1.677,6.127,2.83c0.43,0.268,0.773,0.618,1.028,1.046c0.641,0.192,1.288,0.371,1.942,0.534 C43.844,94.541,44.241,94.039,44.756,93.625z"/>
      <path fill="none" d="M50.603,12.816c1.139,0.15,2.316,0.306,3.444,0.688c1.29,0.437,2.568,1.14,4.023,2.211l0.284,0.211 c0.618,0.461,1.257,0.938,1.995,1.183c0.454,0.149,0.938,0.299,1.417,0.338c0.876,0.072,1.535,0.072,2.136,0.001 c1.26-0.148,2.635-0.191,4.196-0.13c1.041,0.041,2.088,0.197,3.101,0.347c2.014,0.3,3.841,1.166,5.396,1.955 c1.485,0.753,2.75,1.199,3.982,1.403c0.117,0.019,0.23,0.024,0.347,0.042c-7.353-6.075-16.783-9.726-27.066-9.726 c-2.246,0-4.45,0.177-6.602,0.513c0.807,0.434,1.66,0.731,2.587,0.862C50.096,12.749,50.349,12.783,50.603,12.816z"/>
      <path fill="none" d="M35.109,22.73c0.478,0.276,0.956,0.553,1.437,0.823l0.305,0.171c1.764,0.99,3.589,2.014,5.513,2.745 c1.298,0.494,2.744,0.898,4.419,1.234c0.75,0.151,1.401,0.308,1.991,0.479c1.774,0.517,3.258,1.531,4.599,2.55 c1.836,1.397,3.731,2.434,5.792,3.167c2.574,0.917,5.024,2.191,7.083,3.318c1.693,0.927,3.549,1.621,5.515,2.062 c1.361,0.306,2.587,0.585,3.811,0.919c1.151,0.313,2.055,0.995,2.684,2.024c0.454,0.742,0.61,1.563,0.731,2.34 c0.051,0.326,0.094,0.654,0.137,0.982c0.098,0.748,0.199,1.521,0.396,2.251c0.414,1.526,1.326,2.808,2.787,3.917 c1.345,1.021,2.902,1.703,4.383,2.313c2.036,0.839,4.116,1.669,6.129,2.472l0.768,0.306c0.761,0.304,1.654,0.626,2.613,0.84 c0.014-0.162,0.025-0.325,0.037-0.487c-1.202-0.291-2.355-0.752-3.471-1.208L91.426,55.4c-1.356-0.555-2.76-1.128-4.148-1.669 c-1.284-0.5-2.785-1.137-4.187-2.072c-1.992-1.328-3.098-3.25-3.379-5.877l-0.009-0.078c-0.082-0.755-0.166-1.537-0.312-2.29 c-0.379-1.957-1.565-3.258-3.526-3.869c-1.003-0.313-2.025-0.566-3.037-0.75c-2.312-0.421-4.573-1.319-7.333-2.913 c-1.722-0.994-3.285-1.771-4.78-2.378c-0.306-0.124-0.612-0.246-0.919-0.368c-0.756-0.3-1.537-0.611-2.292-0.948 c-1.573-0.703-2.917-1.695-4.386-2.824c-1.626-1.25-3.361-2.037-5.304-2.406c-1.312-0.25-2.642-0.599-3.814-0.907 c-2.309-0.607-4.403-1.775-6.427-2.905l-0.14-0.078c-0.517-0.289-1.031-0.583-1.544-0.876c-1.558-0.891-3.169-1.813-4.837-2.553 c-0.515-0.228-1.046-0.429-1.567-0.611c-0.29,0.203-0.581,0.405-0.866,0.616c0.83,0.272,1.605,0.562,2.333,0.881 C32.395,21.159,33.774,21.958,35.109,22.73z"/>
      <path fill="none" d="M48.601,16.601c0.373,0.055,0.747,0.099,1.122,0.144c0.958,0.114,1.949,0.231,2.902,0.523 c1.385,0.424,2.518,1.234,3.443,1.97l0.328,0.262c0.742,0.596,1.51,1.211,2.388,1.624c0.855,0.4,1.733,0.612,2.609,0.628 c0.92,0.014,1.849-0.058,2.835-0.228c0.512-0.088,1.039-0.118,1.55-0.146l0.684-0.042c0.521-0.035,1.064-0.073,1.593-0.055 c2.002,0.061,3.857,0.475,5.516,1.231c0.354,0.161,0.706,0.326,1.058,0.491c0.881,0.413,1.791,0.84,2.709,1.194 c0.904,0.349,1.921,0.575,3.295,0.733c1.233,0.143,2.526,0.219,3.954,0.233c0.231,0.002,0.451,0.018,0.675,0.03 c-0.279-0.305-0.568-0.6-0.855-0.897l-0.144-0.005c-0.282-0.011-0.564-0.02-0.846-0.028c-1.014-0.031-2.062-0.063-3.092-0.217 c-1.229-0.185-2.313-0.478-3.312-0.898c-0.872-0.366-1.74-0.779-2.579-1.179l-0.68-0.322c-1.665-0.786-3.519-1.192-5.664-1.242 c-0.905-0.023-1.833,0.038-2.729,0.095c-0.29,0.019-0.58,0.037-0.87,0.053c-0.484,0.027-0.987,0.08-1.494,0.157 c-1.591,0.245-3.016,0.006-4.229-0.708c-0.73-0.429-1.42-0.951-2.087-1.457l-0.428-0.323c-1.132-0.849-2.132-1.406-3.146-1.753 c-0.938-0.322-1.94-0.445-2.909-0.565c-0.317-0.04-0.635-0.079-0.951-0.125c-0.628-0.091-1.294-0.248-2.039-0.478 c-1.001-0.31-1.83-0.862-2.811-1.552c-0.444-0.312-0.913-0.648-1.372-1.014c-0.379,0.1-0.754,0.211-1.129,0.32 c1.293,1.013,2.688,2.065,4.281,2.837C46.878,16.233,47.671,16.465,48.601,16.601z"/>
      <path fill="none" d="M36,21.995c0.513,0.293,1.026,0.587,1.542,0.875l0.141,0.079c2.012,1.123,4.093,2.284,6.374,2.883 c1.169,0.308,2.495,0.656,3.799,0.904c1.979,0.376,3.746,1.177,5.4,2.449c1.457,1.121,2.79,2.104,4.339,2.797 c0.751,0.335,1.53,0.645,2.283,0.944c0.308,0.122,0.615,0.244,0.922,0.369c1.504,0.61,3.076,1.393,4.808,2.392 c2.736,1.58,4.976,2.469,7.261,2.886c1.021,0.186,2.052,0.44,3.064,0.756c2.046,0.637,3.284,1.997,3.681,4.042 c0.148,0.763,0.233,1.548,0.315,2.309l0.008,0.078c0.274,2.556,1.347,4.424,3.279,5.713c1.384,0.923,2.871,1.554,4.144,2.049 c1.391,0.541,2.795,1.115,4.152,1.67l1.342,0.549c1.097,0.448,2.229,0.9,3.402,1.188c0.013-0.175,0.03-0.35,0.04-0.526 c-0.221-0.073-0.443-0.146-0.664-0.219c-0.727-0.237-1.478-0.482-2.203-0.76c-0.699-0.267-1.399-0.559-2.078-0.842 c-0.683-0.285-1.389-0.58-2.091-0.848c-0.247-0.094-0.494-0.187-0.741-0.28c-1.366-0.513-2.778-1.042-4.068-1.802 c-1.163-0.684-1.996-1.409-2.621-2.282c-0.883-1.233-1.13-2.662-1.324-4.14c-0.03-0.229-0.057-0.458-0.083-0.688 c-0.078-0.674-0.159-1.371-0.324-2.031c-0.439-1.755-1.453-2.983-3.013-3.651c-0.956-0.409-1.989-0.642-2.988-0.867l-0.36-0.082 c-1.213-0.276-2.8-0.684-4.309-1.387c-1.021-0.476-1.98-1.081-2.907-1.666c-0.236-0.149-0.474-0.298-0.711-0.446l-0.541-0.336 c-1.045-0.649-2.125-1.321-3.226-1.909c-0.691-0.37-1.43-0.684-2.145-0.988c-0.378-0.162-0.757-0.323-1.131-0.493 c-1.471-0.667-2.88-1.621-4.308-2.916c-1.577-1.429-3.537-2.29-6.169-2.708c-1.251-0.198-2.354-0.394-3.374-0.596 c-1.658-0.33-3.34-0.985-5.143-2.001c-2.75-1.55-5.202-2.856-7.493-3.993c-0.383-0.19-0.772-0.368-1.163-0.536 c-0.476,0.302-0.947,0.61-1.41,0.931c0.478,0.17,0.963,0.354,1.435,0.563C32.82,20.176,34.437,21.101,36,21.995z"/>
      <path fill="none" d="M32.682,24.739c0.778,0.451,1.562,0.891,2.346,1.331c0.925,0.519,1.85,1.037,2.764,1.574 c1.484,0.873,3.121,1.597,5.004,2.215c1.074,0.353,2.204,0.614,3.296,0.866c0.308,0.071,0.616,0.143,0.923,0.215 c1.453,0.346,2.813,1.009,4.16,2.026c1.27,0.96,2.976,2.175,4.922,3.056c0.97,0.439,1.988,0.812,3.034,1.188 c1.612,0.579,3.282,1.331,5.414,2.439c1.848,0.961,3.74,1.686,5.626,2.154c0.508,0.126,1.021,0.235,1.534,0.345 c0.507,0.107,1.013,0.215,1.516,0.339c0.889,0.219,1.876,0.571,2.467,1.519c0.344,0.552,0.553,1.223,0.623,1.994 c0.262,2.863,1.253,5.035,3.031,6.638c1.184,1.068,2.525,1.934,3.988,2.576c0.973,0.426,1.975,0.833,2.943,1.227 c0.523,0.213,1.047,0.426,1.568,0.643c0.598,0.248,1.192,0.5,1.787,0.752c0.502,0.212,1.003,0.424,1.506,0.634 c1.508,0.63,3.114,1.259,4.781,1.643c0.031-0.214,0.054-0.43,0.082-0.645c-1.311-0.284-2.517-0.725-3.448-1.103 c-0.836-0.34-1.674-0.678-2.512-1.016c-1.384-0.559-2.768-1.116-4.147-1.685c-1.919-0.79-3.935-1.684-5.623-3.148 c-1.447-1.254-2.376-2.756-2.76-4.464c-0.142-0.625-0.241-1.269-0.338-1.891c-0.071-0.46-0.146-0.936-0.235-1.399 c-0.203-1.046-0.739-1.802-1.638-2.312c-0.977-0.554-2.073-0.764-3.134-0.967l-0.33-0.063c-2.276-0.445-4.417-1.166-6.362-2.142 l-0.606-0.305c-1.81-0.911-3.68-1.853-5.612-2.577c-1.068-0.4-2.213-0.841-3.335-1.355c-1.575-0.72-2.962-1.749-4.303-2.743 c-1.496-1.109-2.987-1.817-4.558-2.163c-1.305-0.288-2.579-0.578-3.812-0.96c-1.846-0.572-3.696-1.385-5.499-2.415l-1.128-0.646 c-1.408-0.806-2.864-1.64-4.304-2.443c-1.675-0.935-3.127-1.563-4.572-1.979l-0.401-0.115c-0.281-0.081-0.57-0.165-0.853-0.247 c-0.233,0.196-0.461,0.396-0.689,0.597c0.521,0.15,1.041,0.305,1.562,0.454C29.047,22.863,30.739,23.612,32.682,24.739z"/>
      <path fill="none" d="M16.773,70.644c1.786-0.268,3.236-1.26,4.537-2.293c1.429-1.135,3.042-1.866,4.433-2.433 c1.322-0.537,2.293-1.157,3.054-1.95c0.392-0.408,0.779-0.821,1.166-1.233c0.513-0.547,1.043-1.112,1.576-1.657 c1.183-1.208,2.61-1.796,4.244-1.733c0.562,0.02,1.131,0.069,1.681,0.118c0.451,0.04,0.917,0.081,1.375,0.104 c0.521,0.027,1.053,0.021,1.568,0.012c0.192-0.003,0.381-0.01,0.575-0.006c1.52,0,2.639,0.521,3.418,1.591 c0.445,0.611,0.908,1.225,1.356,1.819c0.452,0.599,0.92,1.219,1.369,1.836c0.223,0.307,0.413,0.641,0.597,0.964 c0.082,0.143,0.163,0.286,0.247,0.427c0.576,0.964,1.44,1.655,2.72,2.177c1.58,0.646,2.895,1.187,4.243,1.791 c0.944,0.424,1.877,0.917,2.744,1.388c1.226,0.664,2.531,0.764,3.997,0.299c1.015-0.321,2.054-0.681,3.086-1.068 c1.491-0.56,2.938-0.415,4.425,0.441c0.822,0.476,1.701,0.969,2.605,1.324c0.569,0.223,1.224,0.279,1.9,0.322 c0.561,0.035,1.133,0.043,1.687,0.051c0.552,0.008,1.121,0.016,1.682,0.05c0.71,0.044,1.426,0.139,2.119,0.229 c0.208,0.027,0.416,0.055,0.624,0.081l0.443,0.054c0.613,0.074,1.247,0.15,1.862,0.271c0.835,0.165,1.705,0.379,2.587,0.633 c1.653,0.479,3.526,1.021,5.416,1.268c0.102,0.013,0.205,0.035,0.307,0.049c0.257-0.432,0.51-0.866,0.752-1.307l-0.436-0.053 c-0.657-0.078-1.336-0.159-1.991-0.316c-0.735-0.176-1.473-0.387-2.187-0.591c-0.555-0.158-1.109-0.317-1.667-0.461 c-1.087-0.28-1.988-0.479-2.839-0.628c-0.652-0.113-1.327-0.185-1.979-0.253l-1.29-0.143c-0.767-0.089-1.559-0.18-2.338-0.238 c-0.548-0.041-1.109-0.054-1.653-0.065c-0.278-0.006-0.558-0.012-0.836-0.021c-0.798-0.028-1.562-0.224-2.268-0.583 c-0.555-0.282-1.104-0.577-1.652-0.872c-0.467-0.252-0.934-0.503-1.405-0.746c-0.747-0.383-1.609-0.474-2.634-0.283 c-0.623,0.116-1.248,0.308-1.854,0.493c-0.222,0.067-0.443,0.136-0.666,0.2c-1.564,0.453-2.968,0.438-4.296-0.044l-0.645-0.238 c-0.539-0.2-1.096-0.408-1.649-0.588c-1.52-0.495-2.718-1.033-3.772-1.692c-1.198-0.75-2.434-1.625-3.364-2.942 c-1.375-1.95-3.056-3.707-4.682-5.406c-0.348-0.365-0.786-0.634-1.347-0.829c-0.92-0.32-1.889-0.222-2.827-0.128l-0.413,0.041 c-1.04,0.095-2.072,0.025-3.072-0.042l-0.255-0.018c-0.185-0.012-0.369-0.027-0.554-0.043c-0.464-0.039-0.941-0.082-1.407-0.063 c-0.794,0.026-1.599,0.105-2.39,0.234c-0.656,0.106-1.382,0.308-1.794,0.999c-0.297,0.496-0.588,0.995-0.869,1.5 c-0.416,0.752-0.939,1.622-1.662,2.379c-0.854,0.895-1.976,1.557-3.532,2.081c-1.014,0.344-2.173,0.777-3.103,1.582l-0.101,0.087 c-0.507,0.439-1.031,0.894-1.576,1.307c-1.834,1.391-3.819,1.794-5.895,1.195c-0.043-0.012-0.088-0.021-0.131-0.034 c0.213,0.558,0.435,1.112,0.67,1.658C15.4,70.769,16.033,70.755,16.773,70.644z"/>
      <path fill="none" d="M27.803,21.474c1.462,0.42,2.93,1.056,4.62,1.999c1.442,0.805,2.898,1.638,4.307,2.445l1.127,0.645 c1.789,1.022,3.624,1.828,5.454,2.395c1.225,0.38,2.494,0.668,3.794,0.955c1.604,0.353,3.123,1.074,4.644,2.203 c1.332,0.987,2.709,2.009,4.262,2.719c1.116,0.51,2.256,0.95,3.321,1.349c1.943,0.728,3.819,1.672,5.634,2.586l0.606,0.305 c1.927,0.967,4.048,1.681,6.304,2.122l0.33,0.063c1.078,0.207,2.193,0.42,3.202,0.993c0.961,0.545,1.532,1.352,1.749,2.467 c0.091,0.467,0.165,0.945,0.236,1.408c0.097,0.619,0.195,1.258,0.335,1.876c0.374,1.659,1.278,3.121,2.688,4.343 c1.663,1.441,3.659,2.327,5.561,3.11c1.38,0.567,2.763,1.125,4.146,1.683c0.838,0.338,1.676,0.676,2.513,1.016 c0.917,0.373,2.104,0.807,3.391,1.089c0.027-0.214,0.058-0.427,0.082-0.642c-0.114-0.028-0.227-0.057-0.341-0.085 c-0.606-0.144-1.234-0.293-1.822-0.523c-2.943-1.154-5.848-2.352-8.569-3.479c-1.65-0.684-3.745-1.7-5.318-3.515 c-0.695-0.801-1.196-1.722-1.532-2.816c-0.255-0.829-0.365-1.69-0.473-2.524c-0.048-0.368-0.095-0.735-0.154-1.101 c-0.279-1.72-1.244-2.845-2.866-3.344c-1.066-0.328-2.184-0.564-3.264-0.793l-0.213-0.045c-1.622-0.344-3.216-0.872-4.735-1.57 c-0.742-0.341-1.479-0.721-2.192-1.089c-0.595-0.307-1.209-0.624-1.822-0.916c-0.859-0.409-1.755-0.782-2.622-1.142l-0.503-0.209 c-0.404-0.169-0.812-0.33-1.221-0.491c-0.63-0.249-1.281-0.505-1.909-0.789c-1.638-0.74-3.096-1.815-4.505-2.855l-0.276-0.203 c-1.258-0.926-2.632-1.573-4.083-1.923c-0.416-0.101-0.834-0.195-1.251-0.289c-0.896-0.202-1.821-0.411-2.715-0.678 c-1.893-0.566-3.77-1.378-5.579-2.413c-1.8-1.029-3.681-2.093-5.748-3.25c-1.497-0.838-2.889-1.429-4.258-1.808 c-0.23-0.064-0.461-0.135-0.692-0.2c-0.252,0.2-0.506,0.396-0.753,0.601c0.236,0.068,0.477,0.138,0.712,0.206L27.803,21.474z"/>
      <path fill="none" d="M32.503,22.361c2.069,1.159,3.949,2.222,5.75,3.251c1.794,1.027,3.655,1.832,5.532,2.393 c0.886,0.265,1.808,0.473,2.7,0.674c0.419,0.095,0.837,0.189,1.254,0.29c1.481,0.357,2.882,1.017,4.165,1.961l0.276,0.204 c1.4,1.032,2.848,2.1,4.464,2.83c0.623,0.282,1.271,0.538,1.898,0.785c0.409,0.161,0.819,0.323,1.226,0.493l0.502,0.209 c0.869,0.361,1.769,0.734,2.633,1.146c0.616,0.293,1.232,0.612,1.829,0.919c0.71,0.367,1.445,0.746,2.182,1.084 c1.506,0.691,3.083,1.214,4.688,1.555l0.214,0.045c1.084,0.23,2.206,0.468,3.282,0.798c1.712,0.527,2.729,1.712,3.024,3.524 c0.06,0.368,0.106,0.738,0.154,1.108c0.106,0.824,0.216,1.676,0.465,2.487c0.326,1.063,0.812,1.958,1.487,2.734 c1.541,1.778,3.606,2.78,5.232,3.453c2.722,1.127,5.625,2.325,8.565,3.478c0.574,0.225,1.193,0.372,1.793,0.515 c0.106,0.025,0.211,0.053,0.317,0.078c0.018-0.167,0.031-0.336,0.047-0.504c-0.986-0.217-1.902-0.546-2.68-0.857l-0.768-0.307 c-2.013-0.803-4.094-1.633-6.131-2.472c-1.494-0.617-3.067-1.305-4.434-2.342c-1.503-1.14-2.441-2.461-2.869-4.038 c-0.202-0.745-0.304-1.526-0.403-2.281c-0.042-0.326-0.085-0.652-0.136-0.977c-0.117-0.754-0.269-1.55-0.7-2.257 c-0.598-0.979-1.456-1.626-2.55-1.924c-1.219-0.332-2.442-0.611-3.8-0.916c-1.987-0.447-3.863-1.148-5.575-2.085 c-2.05-1.123-4.491-2.393-7.05-3.303c-2.083-0.742-3.998-1.789-5.854-3.2c-1.322-1.006-2.786-2.007-4.524-2.513 c-0.583-0.169-1.228-0.325-1.972-0.474c-1.688-0.339-3.145-0.747-4.456-1.245c-1.939-0.737-3.771-1.765-5.543-2.759l-0.305-0.17 c-0.482-0.271-0.961-0.547-1.439-0.825c-1.329-0.77-2.703-1.565-4.136-2.193c-0.767-0.336-1.586-0.641-2.47-0.925 c-0.247,0.185-0.484,0.381-0.727,0.571c0.177,0.05,0.356,0.105,0.532,0.154C29.582,20.916,30.991,21.514,32.503,22.361z"/>
      <path fill="none" d="M18.147,72.608c1.154-0.276,2.271-0.773,3.416-1.52c0.32-0.209,0.638-0.424,0.955-0.638 c0.959-0.647,1.951-1.318,3.025-1.825c0.388-0.184,0.78-0.358,1.172-0.533c0.449-0.199,0.913-0.406,1.361-0.623 c1.683-0.81,3.142-1.918,4.225-2.793c0.658-0.532,1.338-1.083,2.168-1.408c0.806-0.313,1.647-0.334,2.575-0.055 c1.167,0.352,2.153,0.983,3.274,1.824c0.77,0.577,1.481,1.211,2.312,1.985c0.734,0.685,1.189,1.585,1.392,2.753l0.052,0.306 c0.079,0.474,0.161,0.964,0.311,1.419c0.192,0.581,0.664,0.924,1.486,1.078c0.787,0.145,1.588,0.046,2.361-0.051 c0.308-0.039,0.625-0.079,0.94-0.104c1.409-0.105,2.592,0.092,3.622,0.609c0.572,0.288,1.124,0.634,1.658,0.968 c0.139,0.086,0.277,0.173,0.417,0.259c1.138,0.702,2.068,1.101,3.017,1.291c1.323,0.266,2.558,0.222,3.665-0.132 c0.874-0.278,1.729-0.683,2.556-1.073l0.048-0.022c0.674-0.318,1.464-0.66,2.309-0.695c0.569-0.029,1.192,0.132,1.84,0.468 c0.949,0.49,1.981,0.976,3.105,1.21c0.563,0.118,1.116,0.185,1.643,0.195c0.624,0.013,1.26,0.01,1.876,0.006 c0.712-0.001,1.446-0.007,2.168,0.014c0.521,0.015,1.046,0.066,1.554,0.116c0.428,0.041,0.87,0.085,1.305,0.105 c1.482,0.071,2.899,0.493,4.269,0.901c0.518,0.153,1.053,0.313,1.583,0.451c1.067,0.276,2.129,0.523,3.168,0.739 c0.228-0.334,0.446-0.675,0.665-1.016c-0.131-0.022-0.257-0.053-0.388-0.073c-1.513-0.233-3.064-0.627-4.744-1.204 c-0.652-0.225-1.352-0.38-1.968-0.517c-1.2-0.265-2.31-0.423-3.39-0.482c-0.441-0.024-0.888-0.066-1.319-0.106 c-0.503-0.048-1.023-0.097-1.535-0.117c-0.562-0.023-1.138-0.021-1.697-0.015c-0.397,0.003-0.796,0.007-1.193,0 c-0.338-0.005-0.677-0.059-1.005-0.11l-0.041-0.006c-1.25-0.196-2.323-0.767-3.297-1.355c-1.493-0.902-2.807-1.054-4.136-0.477 c-1.166,0.506-2.191,0.934-3.135,1.308c-1.561,0.62-2.974,0.671-4.322,0.16c-0.85-0.322-1.602-0.824-2.288-1.318 c-1.55-1.115-3.374-1.83-5.74-2.248c-1.444-0.255-2.473-0.956-3.145-2.144c-0.864-1.526-1.659-2.586-2.579-3.435 c-0.308-0.283-0.58-0.612-0.843-0.931l-0.121-0.146c-0.654-0.783-1.483-1.621-2.678-1.896c-0.876-0.201-1.776-0.37-2.646-0.533 l-0.56-0.105c-1.256-0.237-2.422,0.013-3.563,0.773c-0.995,0.662-1.847,1.513-2.635,2.327c-1.233,1.274-2.769,2.293-4.564,3.027 c-1.578,0.646-3.088,1.511-4.616,2.645c-1.073,0.798-2.026,1.322-3,1.649c-1.128,0.381-2.121,0.56-3.069,0.557 c0.148,0.312,0.304,0.618,0.459,0.925c0.253-0.041,0.508-0.075,0.763-0.109C17.14,72.796,17.655,72.727,18.147,72.608z"/>
      <path fill="none" d="M45.042,16.843c0.816,0.508,1.799,0.842,3.005,1.02c0.473,0.07,0.947,0.131,1.422,0.193 c0.679,0.088,1.38,0.179,2.067,0.293c1.44,0.239,2.579,1.024,3.503,1.759c0.212,0.169,0.422,0.34,0.633,0.511 c0.575,0.467,1.171,0.951,1.786,1.378c0.85,0.59,1.87,0.962,3.033,1.108c1.063,0.133,2.187,0.083,3.537-0.157 c0.598-0.106,1.256-0.182,2.072-0.24c0.786-0.057,1.559-0.104,2.311-0.076c1.565,0.058,3.034,0.39,4.367,0.985 c1.261,0.563,2.593,1.123,3.96,1.663c1.1,0.435,2.32,0.707,3.732,0.83c0.436,0.038,0.871,0.071,1.307,0.105 c0.556,0.042,1.111,0.085,1.667,0.138c0.261,0.024,0.521,0.047,0.783,0.069c0.767,0.066,1.556,0.141,2.331,0.264 c-0.354-0.426-0.717-0.844-1.088-1.256c-0.291-0.02-0.584-0.036-0.888-0.039c-1.436-0.014-2.737-0.091-3.978-0.234 c-1.395-0.161-2.428-0.392-3.352-0.747c-0.925-0.357-1.839-0.786-2.723-1.201c-0.352-0.165-0.703-0.33-1.056-0.491 c-1.653-0.754-3.429-1.15-5.429-1.211c-0.523-0.014-1.055,0.02-1.571,0.054l-0.686,0.042c-0.504,0.028-1.025,0.057-1.523,0.144 c-1.002,0.173-1.95,0.247-2.878,0.231c-0.909-0.017-1.817-0.236-2.701-0.65c-0.903-0.423-1.682-1.048-2.434-1.652l-0.327-0.261 c-0.909-0.723-2.021-1.518-3.369-1.931c-0.934-0.286-1.915-0.403-2.863-0.515c-0.376-0.045-0.753-0.089-1.128-0.144 c-0.953-0.14-1.768-0.377-2.49-0.728c-1.62-0.785-3.031-1.85-4.337-2.874c-0.037-0.029-0.075-0.062-0.112-0.092 c-0.474,0.142-0.941,0.296-1.408,0.454c0.335,0.267,0.677,0.522,1.021,0.762C42.363,15.133,43.571,15.926,45.042,16.843z"/>
      <path fill="none" d="M18.418,71.275c0.95-0.32,1.883-0.833,2.937-1.616c1.543-1.146,3.069-2.02,4.665-2.672 c1.767-0.724,3.276-1.725,4.487-2.977c0.796-0.823,1.658-1.683,2.672-2.358c1.177-0.782,2.431-1.057,3.732-0.807l0.559,0.105 c0.873,0.163,1.774,0.333,2.655,0.535c1.26,0.289,2.123,1.158,2.801,1.972l0.122,0.146c0.258,0.312,0.525,0.636,0.822,0.909 c0.938,0.865,1.746,1.941,2.622,3.489c0.637,1.125,1.614,1.789,2.986,2.032c2.401,0.424,4.255,1.15,5.833,2.287 c0.674,0.484,1.411,0.977,2.235,1.289c1.292,0.49,2.652,0.438,4.158-0.158c0.941-0.373,1.965-0.8,3.129-1.306 c1.384-0.599,2.805-0.439,4.343,0.492c0.954,0.576,2.004,1.135,3.215,1.324l0.041,0.007c0.32,0.051,0.651,0.103,0.974,0.107 c0.396,0.007,0.794,0.003,1.188,0c0.557-0.005,1.136-0.01,1.708,0.015c0.517,0.021,1.04,0.07,1.547,0.117 c0.429,0.041,0.873,0.082,1.31,0.106c1.094,0.061,2.215,0.22,3.427,0.488c0.623,0.138,1.328,0.294,1.993,0.522 c1.666,0.573,3.205,0.964,4.705,1.194c0.165,0.025,0.322,0.063,0.485,0.091c0.176-0.277,0.356-0.552,0.526-0.834 c-0.071-0.01-0.144-0.025-0.215-0.035c-1.907-0.248-3.789-0.793-5.449-1.273c-0.876-0.254-1.74-0.465-2.568-0.629 c-0.607-0.12-1.236-0.195-1.845-0.269l-0.444-0.055c-0.209-0.026-0.418-0.054-0.627-0.081c-0.688-0.091-1.401-0.185-2.103-0.228 c-0.555-0.034-1.122-0.042-1.671-0.05c-0.557-0.008-1.132-0.016-1.697-0.051c-0.695-0.044-1.369-0.103-1.969-0.338 c-0.92-0.36-1.807-0.859-2.637-1.338c-1.423-0.82-2.807-0.959-4.231-0.426c-1.037,0.389-2.079,0.749-3.098,1.072 c-1.526,0.482-2.892,0.379-4.173-0.316c-0.863-0.468-1.792-0.96-2.729-1.38c-1.345-0.603-2.659-1.144-4.236-1.788 c-1.328-0.541-2.226-1.263-2.828-2.27c-0.085-0.143-0.167-0.287-0.25-0.433c-0.181-0.317-0.368-0.646-0.583-0.942 c-0.448-0.615-0.915-1.234-1.366-1.833c-0.449-0.594-0.913-1.209-1.359-1.822c-0.743-1.021-1.771-1.497-3.232-1.497 c-0.195-0.004-0.383,0.003-0.573,0.006c-0.519,0.008-1.056,0.016-1.583-0.012c-0.462-0.024-0.931-0.065-1.383-0.105 c-0.547-0.048-1.112-0.098-1.668-0.117c-1.575-0.065-2.938,0.503-4.074,1.665c-0.532,0.544-1.061,1.108-1.573,1.654 c-0.388,0.413-0.775,0.826-1.167,1.234c-0.785,0.817-1.78,1.454-3.132,2.005c-1.375,0.56-2.971,1.282-4.378,2.399 c-1.326,1.052-2.806,2.064-4.645,2.34c-0.703,0.105-1.315,0.129-1.885,0.073c0.129,0.293,0.26,0.584,0.395,0.873 C16.27,71.83,17.272,71.661,18.418,71.275z"/>
      <path fill="none" d="M41.352,17.208c0.25,0.161,0.5,0.324,0.75,0.487c0.62,0.405,1.262,0.824,1.907,1.21 c1.1,0.657,2.31,1.055,3.597,1.185c1.053,0.106,2.095,0.24,3.098,0.398c1.214,0.191,2.134,0.899,2.875,1.568 c0.214,0.193,0.426,0.39,0.637,0.587c0.458,0.427,0.933,0.868,1.426,1.264c0.869,0.698,1.949,1.167,3.398,1.477 c0.796,0.169,1.671,0.273,2.675,0.317c0.979,0.045,1.967-0.15,2.921-0.336l0.385-0.075c0.884-0.169,1.764-0.269,2.664-0.364 c1.791-0.189,3.437,0.339,4.809,0.88c2.087,0.823,4.013,1.387,5.89,1.724c0.633,0.114,1.286,0.189,1.917,0.263 c0.391,0.045,0.78,0.09,1.169,0.145c0.404,0.056,0.81,0.102,1.215,0.147c0.964,0.108,1.961,0.22,2.925,0.48 c1.04,0.281,2.073,0.756,3.16,1.453c0.176,0.113,0.349,0.228,0.525,0.342c-0.785-1.181-1.624-2.321-2.519-3.415 c-0.844-0.148-1.719-0.223-2.564-0.296c-0.262-0.022-0.523-0.045-0.785-0.07c-0.554-0.052-1.108-0.095-1.663-0.137 c-0.437-0.034-0.873-0.067-1.309-0.105c-1.435-0.125-2.676-0.401-3.797-0.845c-1.369-0.542-2.704-1.103-3.968-1.667 c-1.307-0.583-2.748-0.908-4.283-0.965c-0.747-0.027-1.507,0.021-2.287,0.076c-0.808,0.057-1.459,0.132-2.049,0.237 c-1.373,0.245-2.52,0.295-3.604,0.158c-1.201-0.15-2.256-0.536-3.135-1.146c-0.623-0.433-1.222-0.918-1.801-1.389 c-0.21-0.17-0.419-0.341-0.631-0.509c-0.901-0.718-2.01-1.482-3.399-1.713c-0.683-0.114-1.383-0.205-2.06-0.292 c-0.476-0.062-0.951-0.123-1.426-0.193c-1.238-0.183-2.249-0.526-3.092-1.052c-1.475-0.92-2.686-1.714-3.81-2.501 c-0.385-0.27-0.767-0.559-1.14-0.864c-0.898,0.31-1.788,0.639-2.658,1.007c0.789,0.579,1.629,1.083,2.455,1.569 C40.292,16.555,40.833,16.874,41.352,17.208z"/>
      <path fill="none" d="M39.885,22.27c1.781,1.004,3.442,1.65,5.076,1.976c1.017,0.203,2.118,0.397,3.365,0.595 c2.678,0.425,4.675,1.303,6.286,2.763c1.411,1.279,2.8,2.22,4.25,2.877c0.372,0.169,0.749,0.33,1.126,0.49 c0.719,0.306,1.462,0.623,2.163,0.997c1.106,0.591,2.189,1.265,3.237,1.917l0.541,0.336c0.238,0.147,0.476,0.297,0.713,0.447 c0.921,0.581,1.873,1.182,2.882,1.651c1.489,0.694,3.061,1.098,4.264,1.372l0.36,0.081c1.008,0.228,2.051,0.462,3.027,0.88 c1.628,0.697,2.686,1.977,3.144,3.805c0.168,0.674,0.249,1.378,0.328,2.059c0.027,0.229,0.054,0.458,0.083,0.686 c0.197,1.503,0.431,2.845,1.283,4.037c0.606,0.846,1.418,1.551,2.553,2.219c1.272,0.749,2.676,1.276,4.033,1.785 c0.247,0.093,0.495,0.186,0.741,0.28c0.706,0.27,1.414,0.564,2.099,0.85c0.676,0.282,1.376,0.574,2.07,0.84 c0.721,0.274,1.47,0.52,2.193,0.756c0.204,0.066,0.407,0.134,0.611,0.201c0.017-0.309,0.02-0.622,0.03-0.933 c-0.053-0.017-0.106-0.034-0.159-0.051c-0.548-0.173-1.115-0.35-1.662-0.561c-0.793-0.305-1.581-0.623-2.37-0.94 c-0.95-0.383-1.933-0.779-2.906-1.145c-1.3-0.488-2.772-1.042-4.115-1.851c-1.629-0.981-2.603-2.192-2.977-3.702 c-0.226-0.906-0.392-1.897-0.523-3.119c-0.164-1.519-0.409-2.651-0.795-3.672c-0.307-0.815-0.732-1.494-1.265-2.018 c-0.925-0.911-2.115-1.372-3.158-1.702l-0.757-0.238c-0.769-0.241-1.563-0.49-2.339-0.761c-0.906-0.315-1.562-0.781-2.006-1.424 c-0.372-0.54-0.335-1.094,0.104-1.562c0.279-0.296,0.638-0.571,1.038-0.795c1.021-0.571,2.077-0.888,3.141-0.944l0.447-0.025 c0.664-0.039,1.354-0.078,2.031-0.044c0.862,0.042,1.732,0.151,2.574,0.257l0.738,0.091c0.696,0.084,1.416,0.171,2.114,0.328 c0.994,0.224,1.921,0.648,2.816,1.06c0.355,0.163,0.711,0.327,1.071,0.478c0.727,0.305,1.489,0.568,2.228,0.822l0.611,0.211 c0.369,0.129,0.744,0.246,1.118,0.363c0.104,0.032,0.21,0.069,0.315,0.102c-0.633-1.227-1.323-2.418-2.068-3.572 c-0.315-0.206-0.629-0.413-0.946-0.616c-1.066-0.684-2.079-1.15-3.096-1.425c-0.948-0.255-1.936-0.366-2.892-0.473 c-0.407-0.046-0.814-0.091-1.221-0.148c-0.387-0.054-0.775-0.099-1.163-0.144c-0.636-0.074-1.292-0.15-1.933-0.265 c-1.891-0.34-3.831-0.908-5.933-1.736c-1.346-0.532-2.957-1.049-4.701-0.866c-0.895,0.094-1.771,0.193-2.645,0.361l-0.384,0.075 c-0.967,0.189-1.966,0.385-2.975,0.34c-1.017-0.044-1.903-0.15-2.712-0.322c-1.485-0.316-2.596-0.8-3.494-1.521 c-0.499-0.401-0.976-0.845-1.438-1.274c-0.211-0.196-0.422-0.393-0.635-0.585c-0.715-0.646-1.602-1.33-2.757-1.512 c-0.999-0.157-2.038-0.29-3.085-0.396c-1.32-0.133-2.562-0.542-3.69-1.216c-0.649-0.388-1.292-0.808-1.915-1.214 c-0.249-0.163-0.498-0.326-0.749-0.487c-0.515-0.332-1.054-0.65-1.575-0.957c-0.867-0.511-1.753-1.039-2.579-1.657 c-1.993,0.857-3.905,1.866-5.727,3.006c0.348,0.152,0.693,0.311,1.034,0.48C34.676,19.41,37.13,20.717,39.885,22.27z"/>
      <path fill="none" d="M24.027,72.208c1.266-0.83,2.574-1.689,4.01-2.361c0.823-0.387,1.81-0.811,2.882-1.033 c1.683-0.347,3.035,0.098,4.017,1.324c0.331,0.413,0.529,0.932,0.721,1.434c0.047,0.123,0.094,0.245,0.142,0.366 c0.142,0.351,0.268,0.714,0.39,1.065c0.173,0.5,0.353,1.016,0.577,1.498c0.711,1.522,2.017,2.477,3.994,2.919 c0.767,0.172,1.607,0.218,2.501,0.134c0.625-0.058,1.297-0.205,2.115-0.463c1.087-0.342,2.177-0.74,3.232-1.126l0.254-0.093 c1.538-0.561,3.1-0.501,4.64,0.175c2.203,0.966,4.584,1.751,7.281,2.401c0.95,0.229,1.933,0.467,2.896,0.717 c0.987,0.253,2.03,0.203,3.191-0.155c0.925-0.286,1.637-0.481,2.31-0.632c0.571-0.129,1.164-0.209,1.761-0.24 c0.474-0.025,0.954-0.02,1.418-0.015c0.296,0.005,0.594,0.007,0.886,0.003c1.307-0.019,2.681-0.044,4.201-0.079 c0.296-0.007,0.591-0.021,0.887-0.034c0.413-0.019,0.84-0.038,1.261-0.038c0.013,0,0.024,0,0.036,0 c1.255,0.001,2.549,0.286,3.846,0.849c1.221,0.529,2.512,0.903,3.924,1.152c0.494-0.633,0.972-1.279,1.43-1.94 c-1.012-0.213-2.045-0.452-3.082-0.721c-0.534-0.139-1.071-0.298-1.591-0.453c-1.356-0.403-2.76-0.821-4.216-0.892 c-0.439-0.021-0.885-0.064-1.314-0.106c-0.505-0.05-1.026-0.101-1.538-0.115c-0.718-0.021-1.449-0.016-2.161-0.014 c-0.616,0.004-1.256,0.006-1.881-0.006c-0.541-0.012-1.107-0.078-1.686-0.199c-1.15-0.24-2.199-0.734-3.162-1.231 c-0.611-0.316-1.188-0.473-1.727-0.442c-0.803,0.033-1.567,0.365-2.221,0.674l-0.048,0.022c-0.834,0.395-1.696,0.802-2.585,1.085 c-1.144,0.365-2.413,0.411-3.778,0.138c-0.976-0.196-1.93-0.604-3.091-1.32c-0.14-0.086-0.279-0.173-0.418-0.261 c-0.529-0.331-1.077-0.673-1.639-0.956c-0.993-0.5-2.14-0.691-3.502-0.586c-0.31,0.023-0.625,0.063-0.929,0.102 c-0.79,0.099-1.608,0.202-2.431,0.049c-0.899-0.168-1.442-0.57-1.66-1.23c-0.156-0.471-0.239-0.97-0.319-1.452l-0.052-0.304 c-0.193-1.117-0.626-1.977-1.322-2.626c-0.826-0.77-1.532-1.398-2.293-1.97c-1.102-0.826-2.068-1.447-3.204-1.789 c-0.876-0.263-1.669-0.247-2.427,0.049c-0.797,0.312-1.464,0.852-2.108,1.373c-1.092,0.883-2.564,2.002-4.269,2.822 c-0.452,0.218-0.917,0.425-1.368,0.625c-0.391,0.175-0.781,0.349-1.168,0.531c-1.058,0.5-2.042,1.165-2.995,1.808 c-0.318,0.216-0.637,0.431-0.958,0.64c-1.167,0.761-2.307,1.268-3.487,1.551c-0.503,0.121-1.023,0.191-1.527,0.259 c-0.228,0.031-0.456,0.063-0.683,0.099c0.225,0.439,0.453,0.876,0.692,1.306c0.073-0.004,0.147-0.008,0.22-0.012 C19.567,74.349,21.897,73.604,24.027,72.208z"/>
      <path d="M39.773,22.467c1.803,1.016,3.485,1.671,5.143,2.001c1.02,0.203,2.123,0.398,3.374,0.596 c2.632,0.418,4.592,1.278,6.169,2.708c1.428,1.295,2.837,2.249,4.308,2.916c0.374,0.17,0.753,0.331,1.131,0.493 c0.715,0.304,1.453,0.619,2.145,0.988c1.101,0.587,2.181,1.259,3.226,1.909l0.541,0.336c0.237,0.147,0.475,0.297,0.711,0.446 c0.927,0.585,1.886,1.19,2.907,1.666c1.509,0.703,3.096,1.11,4.309,1.387l0.36,0.082c0.999,0.225,2.032,0.458,2.988,0.867 c1.56,0.668,2.573,1.896,3.013,3.651c0.165,0.66,0.246,1.357,0.324,2.031c0.026,0.23,0.053,0.459,0.083,0.688 c0.194,1.478,0.441,2.906,1.324,4.14c0.625,0.873,1.458,1.598,2.621,2.282c1.29,0.759,2.702,1.289,4.068,1.802 c0.247,0.093,0.494,0.186,0.741,0.28c0.702,0.268,1.408,0.562,2.091,0.848c0.679,0.283,1.379,0.575,2.078,0.842 c0.726,0.277,1.477,0.522,2.203,0.76c0.221,0.073,0.443,0.146,0.664,0.219c0.005-0.078,0.014-0.155,0.018-0.233 c-0.204-0.067-0.407-0.135-0.611-0.201c-0.724-0.236-1.473-0.481-2.193-0.756c-0.694-0.266-1.395-0.558-2.07-0.84 c-0.685-0.286-1.393-0.581-2.099-0.85c-0.246-0.094-0.494-0.187-0.741-0.28c-1.357-0.509-2.761-1.036-4.033-1.785 c-1.135-0.667-1.946-1.373-2.553-2.219c-0.853-1.192-1.086-2.534-1.283-4.037c-0.029-0.228-0.056-0.457-0.083-0.686 c-0.079-0.681-0.16-1.385-0.328-2.059c-0.458-1.828-1.516-3.108-3.144-3.805c-0.977-0.418-2.02-0.653-3.027-0.88l-0.36-0.081 c-1.203-0.274-2.774-0.677-4.264-1.372c-1.009-0.469-1.961-1.07-2.882-1.651c-0.237-0.15-0.475-0.299-0.713-0.447l-0.541-0.336 c-1.048-0.652-2.131-1.326-3.237-1.917c-0.701-0.374-1.444-0.691-2.163-0.997c-0.377-0.16-0.754-0.321-1.126-0.49 c-1.449-0.658-2.839-1.599-4.25-2.877c-1.611-1.46-3.608-2.338-6.286-2.763c-1.248-0.198-2.348-0.393-3.365-0.595 c-1.634-0.325-3.294-0.972-5.076-1.976c-2.754-1.552-5.208-2.86-7.503-3.999c-0.341-0.169-0.686-0.328-1.034-0.48 c-0.077,0.048-0.153,0.099-0.23,0.147c0.392,0.168,0.78,0.345,1.163,0.536C34.572,19.611,37.023,20.917,39.773,22.467z"/>
      <path d="M35.887,22.192c0.514,0.294,1.028,0.588,1.544,0.876l0.14,0.078c2.024,1.13,4.118,2.298,6.427,2.905 c1.173,0.308,2.502,0.658,3.814,0.907c1.943,0.369,3.678,1.156,5.304,2.406c1.469,1.129,2.813,2.122,4.386,2.824 c0.755,0.337,1.536,0.648,2.292,0.948c0.307,0.122,0.613,0.244,0.919,0.368c1.495,0.606,3.059,1.384,4.78,2.378 c2.76,1.593,5.021,2.491,7.333,2.913c1.012,0.185,2.034,0.437,3.037,0.75c1.961,0.61,3.147,1.912,3.526,3.869 c0.146,0.753,0.23,1.535,0.312,2.29l0.009,0.078c0.281,2.626,1.387,4.549,3.379,5.877c1.401,0.935,2.902,1.572,4.187,2.072 c1.389,0.541,2.792,1.114,4.148,1.669l1.342,0.549c1.116,0.456,2.269,0.917,3.471,1.208c0.006-0.077,0.012-0.153,0.017-0.23 c-1.173-0.288-2.305-0.74-3.402-1.188l-1.342-0.549c-1.357-0.555-2.762-1.129-4.152-1.67c-1.272-0.496-2.76-1.126-4.144-2.049 c-1.933-1.289-3.005-3.157-3.279-5.713l-0.008-0.078c-0.082-0.76-0.167-1.546-0.315-2.309c-0.396-2.045-1.635-3.405-3.681-4.042 c-1.013-0.316-2.044-0.57-3.064-0.756c-2.285-0.417-4.524-1.307-7.261-2.886c-1.731-0.999-3.304-1.781-4.808-2.392 c-0.307-0.125-0.614-0.247-0.922-0.369c-0.753-0.299-1.532-0.609-2.283-0.944c-1.55-0.692-2.882-1.676-4.339-2.797 c-1.655-1.272-3.421-2.073-5.4-2.449c-1.304-0.248-2.629-0.597-3.799-0.904c-2.281-0.6-4.362-1.761-6.374-2.883l-0.141-0.079 c-0.516-0.288-1.029-0.582-1.542-0.875c-1.563-0.894-3.179-1.819-4.858-2.563c-0.472-0.209-0.957-0.393-1.435-0.563 c-0.075,0.052-0.149,0.107-0.224,0.159c0.521,0.182,1.052,0.382,1.567,0.611C32.718,20.379,34.329,21.301,35.887,22.192z"/>
      <path d="M34.995,22.926c0.479,0.277,0.958,0.554,1.439,0.825l0.305,0.17c1.772,0.994,3.604,2.022,5.543,2.759 c1.311,0.499,2.768,0.906,4.456,1.245c0.744,0.149,1.389,0.305,1.972,0.474c1.738,0.506,3.202,1.507,4.524,2.513 c1.856,1.412,3.771,2.458,5.854,3.2c2.559,0.911,5,2.181,7.05,3.303c1.712,0.937,3.588,1.638,5.575,2.085 c1.357,0.305,2.581,0.584,3.8,0.916c1.094,0.298,1.952,0.945,2.55,1.924c0.432,0.707,0.583,1.502,0.7,2.257 c0.051,0.324,0.094,0.65,0.136,0.977c0.1,0.755,0.201,1.537,0.403,2.281c0.428,1.577,1.366,2.897,2.869,4.038 c1.366,1.037,2.939,1.726,4.434,2.342c2.037,0.839,4.118,1.669,6.131,2.472l0.768,0.307c0.778,0.311,1.694,0.64,2.68,0.857 c0.007-0.076,0.011-0.152,0.017-0.228c-0.959-0.214-1.852-0.536-2.613-0.84l-0.768-0.306c-2.013-0.803-4.093-1.633-6.129-2.472 c-1.48-0.61-3.038-1.292-4.383-2.313c-1.461-1.109-2.373-2.39-2.787-3.917c-0.197-0.729-0.299-1.503-0.396-2.251 c-0.043-0.328-0.086-0.656-0.137-0.982c-0.121-0.777-0.277-1.598-0.731-2.34c-0.629-1.03-1.532-1.711-2.684-2.024 c-1.224-0.333-2.449-0.613-3.811-0.919c-1.966-0.441-3.821-1.135-5.515-2.062c-2.059-1.126-4.509-2.401-7.083-3.318 c-2.062-0.733-3.956-1.77-5.792-3.167c-1.34-1.019-2.825-2.034-4.599-2.55c-0.589-0.171-1.24-0.328-1.991-0.479 c-1.676-0.336-3.121-0.741-4.419-1.234c-1.924-0.731-3.749-1.755-5.513-2.745l-0.305-0.171c-0.481-0.27-0.959-0.546-1.437-0.823 c-1.334-0.772-2.714-1.571-4.159-2.205c-0.728-0.319-1.503-0.609-2.333-0.881c-0.075,0.056-0.153,0.108-0.227,0.164 c0.884,0.284,1.703,0.589,2.47,0.925C32.292,21.361,33.667,22.157,34.995,22.926z"/>
      <path d="M32.393,22.559c2.067,1.158,3.948,2.221,5.748,3.25c1.809,1.035,3.686,1.847,5.579,2.413 c0.895,0.268,1.82,0.477,2.715,0.678c0.417,0.094,0.835,0.188,1.251,0.289c1.451,0.35,2.825,0.997,4.083,1.923l0.276,0.203 c1.41,1.04,2.868,2.115,4.505,2.855c0.628,0.284,1.279,0.541,1.909,0.789c0.408,0.161,0.816,0.322,1.221,0.491l0.503,0.209 c0.867,0.36,1.763,0.732,2.622,1.142c0.613,0.292,1.228,0.609,1.822,0.916c0.713,0.368,1.45,0.748,2.192,1.089 c1.52,0.698,3.113,1.227,4.735,1.57l0.213,0.045c1.08,0.229,2.197,0.465,3.264,0.793c1.622,0.499,2.587,1.624,2.866,3.344 c0.06,0.366,0.106,0.733,0.154,1.101c0.107,0.834,0.218,1.696,0.473,2.524c0.336,1.094,0.837,2.015,1.532,2.816 c1.573,1.814,3.668,2.831,5.318,3.515c2.722,1.127,5.626,2.325,8.569,3.479c0.588,0.23,1.216,0.38,1.822,0.523 c0.114,0.027,0.227,0.057,0.341,0.085c0.008-0.076,0.021-0.15,0.029-0.226c-0.106-0.026-0.211-0.053-0.317-0.078 c-0.6-0.143-1.219-0.29-1.793-0.515c-2.94-1.153-5.844-2.351-8.565-3.478c-1.626-0.673-3.691-1.675-5.232-3.453 c-0.675-0.776-1.161-1.671-1.487-2.734c-0.249-0.811-0.358-1.663-0.465-2.487c-0.048-0.37-0.095-0.74-0.154-1.108 c-0.295-1.812-1.312-2.998-3.024-3.524c-1.076-0.331-2.198-0.568-3.282-0.798l-0.214-0.045c-1.605-0.34-3.183-0.863-4.688-1.555 c-0.736-0.338-1.472-0.718-2.182-1.084c-0.597-0.307-1.213-0.625-1.829-0.919c-0.864-0.412-1.764-0.785-2.633-1.146l-0.502-0.209 c-0.406-0.17-0.816-0.332-1.226-0.493c-0.627-0.248-1.275-0.503-1.898-0.785c-1.616-0.73-3.064-1.798-4.464-2.83l-0.276-0.204 c-1.283-0.944-2.684-1.604-4.165-1.961c-0.417-0.101-0.835-0.195-1.254-0.29c-0.892-0.201-1.813-0.409-2.7-0.674 c-1.877-0.562-3.738-1.366-5.532-2.393c-1.801-1.029-3.681-2.093-5.75-3.251c-1.512-0.847-2.921-1.445-4.308-1.828 c-0.177-0.049-0.355-0.104-0.532-0.154c-0.073,0.057-0.147,0.115-0.22,0.173c0.23,0.065,0.462,0.136,0.692,0.2 C29.503,21.13,30.896,21.721,32.393,22.559z"/>
      <path d="M27.74,21.692c1.445,0.416,2.897,1.044,4.572,1.979c1.44,0.804,2.896,1.637,4.304,2.443l1.128,0.646 c1.803,1.03,3.653,1.842,5.499,2.415c1.234,0.382,2.507,0.672,3.812,0.96c1.571,0.346,3.062,1.054,4.558,2.163 c1.341,0.995,2.729,2.023,4.303,2.743c1.122,0.514,2.267,0.955,3.335,1.355c1.933,0.724,3.803,1.666,5.612,2.577l0.606,0.305 c1.945,0.976,4.086,1.697,6.362,2.142l0.33,0.063c1.061,0.204,2.157,0.414,3.134,0.967c0.898,0.51,1.435,1.267,1.638,2.312 c0.09,0.463,0.164,0.939,0.235,1.399c0.097,0.623,0.196,1.266,0.338,1.891c0.384,1.708,1.312,3.209,2.76,4.464 c1.688,1.464,3.704,2.358,5.623,3.148c1.38,0.568,2.764,1.126,4.147,1.685c0.838,0.338,1.676,0.676,2.512,1.016 c0.931,0.378,2.137,0.818,3.448,1.103c0.01-0.075,0.019-0.15,0.029-0.225c-1.287-0.282-2.474-0.716-3.391-1.089 c-0.837-0.34-1.675-0.678-2.513-1.016c-1.384-0.558-2.767-1.115-4.146-1.683c-1.901-0.784-3.897-1.669-5.561-3.11 c-1.409-1.222-2.313-2.684-2.688-4.343c-0.14-0.618-0.238-1.257-0.335-1.876c-0.071-0.462-0.146-0.94-0.236-1.408 c-0.217-1.115-0.788-1.922-1.749-2.467c-1.009-0.572-2.124-0.786-3.202-0.993l-0.33-0.063c-2.256-0.441-4.377-1.155-6.304-2.122 l-0.606-0.305c-1.814-0.914-3.69-1.858-5.634-2.586c-1.065-0.399-2.205-0.839-3.321-1.349c-1.553-0.71-2.93-1.732-4.262-2.719 c-1.521-1.129-3.041-1.85-4.644-2.203c-1.3-0.287-2.569-0.575-3.794-0.955c-1.83-0.567-3.665-1.373-5.454-2.395l-1.127-0.645 c-1.409-0.807-2.865-1.64-4.307-2.445c-1.69-0.943-3.158-1.578-4.62-1.999l-0.401-0.115c-0.234-0.067-0.476-0.138-0.712-0.206 c-0.069,0.058-0.135,0.119-0.204,0.177c0.283,0.081,0.572,0.166,0.853,0.247L27.74,21.692z"/>
      <path d="M32.469,25.107c0.779,0.452,1.565,0.893,2.351,1.333c0.922,0.517,1.845,1.035,2.756,1.57 c1.511,0.889,3.175,1.625,5.087,2.253c1.093,0.358,2.232,0.622,3.333,0.876c0.307,0.071,0.614,0.142,0.92,0.215 c1.395,0.332,2.704,0.97,4.001,1.951c1.288,0.974,3.02,2.206,5.003,3.105c0.985,0.446,2.013,0.822,3.066,1.2 c1.594,0.572,3.248,1.317,5.362,2.416c1.876,0.977,3.801,1.713,5.719,2.19c0.513,0.127,1.03,0.237,1.548,0.347 c0.502,0.107,1.005,0.214,1.503,0.337c0.846,0.208,1.698,0.514,2.207,1.33c0.309,0.495,0.497,1.103,0.561,1.808 c0.272,2.975,1.31,5.237,3.17,6.915c1.218,1.099,2.599,1.99,4.104,2.649c0.978,0.429,1.981,0.837,2.953,1.231 c0.522,0.213,1.045,0.426,1.565,0.642c0.597,0.248,1.19,0.499,1.784,0.75c0.503,0.213,1.005,0.426,1.508,0.636 c1.535,0.642,3.171,1.281,4.881,1.672c0.022-0.14,0.043-0.281,0.064-0.422c-1.668-0.384-3.273-1.012-4.781-1.643 c-0.503-0.21-1.004-0.422-1.506-0.634c-0.595-0.252-1.189-0.504-1.787-0.752c-0.521-0.217-1.045-0.43-1.568-0.643 c-0.969-0.394-1.971-0.801-2.943-1.227c-1.463-0.642-2.805-1.508-3.988-2.576c-1.778-1.604-2.77-3.775-3.031-6.638 c-0.07-0.771-0.279-1.442-0.623-1.994c-0.591-0.947-1.578-1.299-2.467-1.519c-0.503-0.124-1.009-0.232-1.516-0.339 c-0.513-0.109-1.026-0.218-1.534-0.345c-1.886-0.469-3.778-1.193-5.626-2.154c-2.132-1.108-3.802-1.86-5.414-2.439 c-1.046-0.375-2.064-0.748-3.034-1.188c-1.946-0.881-3.652-2.096-4.922-3.056c-1.346-1.018-2.707-1.68-4.16-2.026 c-0.307-0.073-0.615-0.144-0.923-0.215C45,30.474,43.87,30.212,42.795,29.86c-1.883-0.618-3.52-1.343-5.004-2.215 c-0.914-0.537-1.839-1.056-2.764-1.574c-0.784-0.44-1.568-0.88-2.346-1.331c-1.943-1.127-3.634-1.876-5.323-2.358 c-0.521-0.149-1.041-0.303-1.562-0.454c-0.127,0.112-0.258,0.219-0.383,0.332c0.61,0.176,1.218,0.357,1.829,0.531 C28.896,23.262,30.557,23.998,32.469,25.107z"/>
      <path d="M24.151,72.397c1.259-0.826,2.561-1.681,3.982-2.346c0.812-0.381,1.783-0.799,2.832-1.016 c1.593-0.332,2.87,0.089,3.794,1.244c0.308,0.385,0.5,0.887,0.686,1.372c0.047,0.124,0.095,0.248,0.144,0.369 c0.139,0.347,0.265,0.707,0.386,1.057c0.175,0.504,0.356,1.026,0.586,1.519c0.742,1.591,2.1,2.586,4.149,3.044 c0.791,0.178,1.655,0.224,2.572,0.14c0.642-0.061,1.329-0.211,2.163-0.473c1.091-0.344,2.185-0.743,3.241-1.13l0.255-0.093 c1.48-0.539,2.985-0.482,4.471,0.169c2.215,0.972,4.609,1.762,7.319,2.415c0.949,0.229,1.931,0.467,2.892,0.715 c1.028,0.267,2.113,0.214,3.314-0.157c0.919-0.285,1.626-0.479,2.292-0.628c0.56-0.125,1.14-0.204,1.724-0.234 c0.467-0.025,0.943-0.021,1.403-0.014c0.298,0.003,0.592,0.007,0.893,0.002c1.307-0.019,2.682-0.044,4.203-0.079 c0.297-0.007,0.594-0.021,0.892-0.034c0.41-0.019,0.834-0.038,1.25-0.038c0.013,0,0.024,0,0.036,0 c1.224,0.001,2.487,0.28,3.756,0.831c1.202,0.521,2.472,0.892,3.856,1.144c0.053-0.067,0.106-0.134,0.158-0.201 c-1.413-0.249-2.703-0.623-3.924-1.152c-1.297-0.562-2.591-0.848-3.846-0.849c-0.012,0-0.023,0-0.036,0 c-0.421,0-0.848,0.02-1.261,0.038c-0.296,0.014-0.591,0.027-0.887,0.034c-1.521,0.035-2.895,0.061-4.201,0.079 c-0.292,0.004-0.59,0.002-0.886-0.003c-0.464-0.005-0.944-0.011-1.418,0.015c-0.597,0.031-1.189,0.111-1.761,0.24 c-0.673,0.15-1.385,0.346-2.31,0.632c-1.161,0.358-2.204,0.408-3.191,0.155c-0.963-0.25-1.945-0.487-2.896-0.717 c-2.696-0.65-5.078-1.436-7.281-2.401c-1.541-0.676-3.102-0.735-4.64-0.175l-0.254,0.093c-1.055,0.386-2.145,0.784-3.232,1.126 c-0.818,0.258-1.49,0.405-2.115,0.463c-0.895,0.084-1.735,0.038-2.501-0.134c-1.977-0.442-3.283-1.396-3.994-2.919 c-0.224-0.482-0.403-0.998-0.577-1.498c-0.122-0.352-0.249-0.715-0.39-1.065c-0.048-0.121-0.095-0.243-0.142-0.366 c-0.192-0.502-0.39-1.021-0.721-1.434c-0.981-1.227-2.334-1.671-4.017-1.324c-1.072,0.223-2.059,0.646-2.882,1.033 c-1.436,0.672-2.745,1.531-4.01,2.361c-2.129,1.396-4.46,2.141-7.125,2.272c-0.073,0.004-0.147,0.008-0.22,0.012 c0.041,0.074,0.085,0.147,0.127,0.22c0.035-0.002,0.07-0.004,0.105-0.006C19.62,74.572,21.987,73.817,24.151,72.397z"/>
      <path d="M18.2,72.829c1.18-0.283,2.321-0.79,3.487-1.551c0.321-0.209,0.64-0.424,0.958-0.64c0.952-0.643,1.937-1.308,2.995-1.808 c0.387-0.183,0.777-0.356,1.168-0.531c0.45-0.2,0.916-0.407,1.368-0.625c1.704-0.82,3.176-1.939,4.269-2.822 c0.645-0.521,1.311-1.061,2.108-1.373c0.757-0.296,1.55-0.312,2.427-0.049c1.136,0.342,2.102,0.963,3.204,1.789 c0.761,0.571,1.467,1.2,2.293,1.97c0.696,0.649,1.129,1.509,1.322,2.626l0.052,0.304c0.081,0.482,0.164,0.981,0.319,1.452 c0.218,0.66,0.76,1.062,1.66,1.23c0.823,0.153,1.641,0.05,2.431-0.049c0.305-0.038,0.62-0.078,0.929-0.102 c1.362-0.105,2.51,0.086,3.502,0.586c0.562,0.283,1.11,0.625,1.639,0.956c0.139,0.088,0.278,0.175,0.418,0.261 c1.161,0.717,2.115,1.124,3.091,1.32c1.365,0.273,2.635,0.228,3.778-0.138c0.889-0.283,1.751-0.69,2.585-1.085l0.048-0.022 c0.653-0.309,1.418-0.641,2.221-0.674c0.538-0.03,1.115,0.126,1.727,0.442c0.963,0.497,2.012,0.991,3.162,1.231 c0.578,0.121,1.145,0.188,1.686,0.199c0.625,0.012,1.265,0.01,1.881,0.006c0.712-0.002,1.443-0.008,2.161,0.014 c0.512,0.015,1.033,0.065,1.538,0.115c0.43,0.042,0.875,0.085,1.314,0.106c1.456,0.07,2.859,0.488,4.216,0.892 c0.52,0.155,1.057,0.314,1.591,0.453c1.037,0.269,2.07,0.508,3.082,0.721c0.047-0.068,0.097-0.133,0.143-0.201 c-1.039-0.216-2.102-0.463-3.168-0.739c-0.53-0.138-1.065-0.298-1.583-0.451c-1.369-0.408-2.786-0.83-4.269-0.901 c-0.435-0.021-0.877-0.064-1.305-0.105c-0.508-0.05-1.033-0.102-1.554-0.116c-0.722-0.021-1.456-0.015-2.168-0.014 c-0.616,0.004-1.252,0.007-1.876-0.006c-0.526-0.011-1.079-0.077-1.643-0.195c-1.124-0.234-2.156-0.72-3.105-1.21 c-0.647-0.336-1.271-0.497-1.84-0.468c-0.845,0.035-1.635,0.377-2.309,0.695l-0.048,0.022c-0.826,0.391-1.682,0.795-2.556,1.073 c-1.107,0.354-2.342,0.397-3.665,0.132c-0.948-0.19-1.879-0.589-3.017-1.291c-0.139-0.086-0.278-0.173-0.417-0.259 c-0.534-0.334-1.086-0.68-1.658-0.968c-1.03-0.518-2.213-0.715-3.622-0.609c-0.315,0.024-0.632,0.064-0.94,0.104 c-0.773,0.097-1.574,0.195-2.361,0.051c-0.822-0.154-1.294-0.497-1.486-1.078c-0.15-0.455-0.232-0.945-0.311-1.419l-0.052-0.306 c-0.203-1.168-0.658-2.068-1.392-2.753c-0.831-0.774-1.542-1.408-2.312-1.985c-1.121-0.841-2.107-1.473-3.274-1.824 c-0.928-0.279-1.769-0.259-2.575,0.055c-0.83,0.325-1.51,0.876-2.168,1.408c-1.083,0.875-2.542,1.983-4.225,2.793 c-0.449,0.217-0.913,0.424-1.361,0.623c-0.392,0.175-0.784,0.35-1.172,0.533c-1.074,0.507-2.066,1.178-3.025,1.825 c-0.317,0.214-0.635,0.429-0.955,0.638c-1.145,0.746-2.262,1.243-3.416,1.52c-0.492,0.118-1.007,0.188-1.504,0.255 c-0.255,0.034-0.509,0.069-0.763,0.109c0.036,0.072,0.073,0.143,0.11,0.214c0.227-0.036,0.455-0.068,0.683-0.099 C17.176,73.021,17.697,72.95,18.2,72.829z"/>
      <path d="M20.165,67.876c0.545-0.413,1.069-0.867,1.576-1.307l0.101-0.087c0.93-0.805,2.089-1.238,3.103-1.582 c1.556-0.524,2.678-1.187,3.532-2.081c0.723-0.757,1.246-1.627,1.662-2.379c0.28-0.505,0.572-1.004,0.869-1.5 c0.412-0.691,1.138-0.893,1.794-0.999c0.791-0.129,1.595-0.208,2.39-0.234c0.465-0.019,0.943,0.024,1.407,0.063 c0.185,0.016,0.37,0.031,0.554,0.043l0.255,0.018c1,0.067,2.032,0.137,3.072,0.042l0.413-0.041 c0.938-0.094,1.907-0.192,2.827,0.128c0.561,0.195,1,0.464,1.347,0.829c1.625,1.699,3.306,3.456,4.682,5.406 c0.93,1.317,2.167,2.192,3.364,2.942c1.054,0.659,2.252,1.197,3.772,1.692c0.554,0.18,1.11,0.388,1.649,0.588l0.645,0.238 c1.328,0.481,2.731,0.497,4.296,0.044c0.223-0.064,0.444-0.133,0.666-0.2c0.605-0.186,1.23-0.377,1.854-0.493 c1.024-0.19,1.887-0.1,2.634,0.283c0.472,0.243,0.938,0.494,1.405,0.746c0.549,0.295,1.098,0.59,1.652,0.872 c0.706,0.359,1.47,0.555,2.268,0.583c0.278,0.01,0.558,0.016,0.836,0.021c0.544,0.012,1.105,0.024,1.653,0.065 c0.779,0.059,1.571,0.149,2.338,0.238l1.29,0.143c0.652,0.068,1.327,0.14,1.979,0.253c0.851,0.148,1.752,0.348,2.839,0.628 c0.558,0.144,1.112,0.303,1.667,0.461c0.714,0.204,1.451,0.415,2.187,0.591c0.655,0.157,1.334,0.238,1.991,0.316l0.436,0.053 c0.072-0.132,0.142-0.266,0.213-0.399c-0.051-0.007-0.097-0.015-0.148-0.022l-0.45-0.055c-0.645-0.077-1.311-0.157-1.942-0.309 c-0.727-0.173-1.459-0.383-2.168-0.586c-0.559-0.159-1.116-0.319-1.679-0.464c-1.098-0.283-2.01-0.484-2.872-0.634 c-0.666-0.117-1.348-0.188-2.007-0.258l-1.286-0.143c-0.771-0.089-1.567-0.181-2.355-0.239c-0.559-0.042-1.126-0.055-1.675-0.066 c-0.277-0.006-0.554-0.013-0.831-0.022c-0.736-0.025-1.438-0.205-2.089-0.536c-0.553-0.28-1.099-0.574-1.645-0.868 c-0.469-0.252-0.938-0.505-1.411-0.749c-0.833-0.429-1.783-0.536-2.907-0.323c-0.646,0.121-1.283,0.315-1.899,0.504 c-0.22,0.067-0.44,0.135-0.661,0.199c-1.473,0.428-2.792,0.416-4.031-0.036l-0.642-0.236c-0.543-0.202-1.104-0.411-1.667-0.594 c-1.485-0.484-2.654-1.009-3.677-1.649c-1.16-0.726-2.355-1.57-3.242-2.827c-1.394-1.975-3.086-3.744-4.729-5.461 c-0.388-0.407-0.882-0.712-1.508-0.931c-1.007-0.351-2.025-0.247-3.009-0.148l-0.409,0.04c-1.005,0.093-2.021,0.024-3.004-0.043 l-0.255-0.017c-0.182-0.013-0.364-0.027-0.547-0.043c-0.476-0.04-0.968-0.078-1.457-0.065c-0.812,0.028-1.635,0.108-2.444,0.24 c-0.708,0.114-1.586,0.354-2.091,1.2c-0.299,0.5-0.593,1.003-0.875,1.514c-0.403,0.728-0.908,1.568-1.598,2.291 c-0.804,0.843-1.872,1.469-3.36,1.972c-1.052,0.356-2.257,0.808-3.245,1.662l-0.101,0.088c-0.502,0.435-1.021,0.884-1.555,1.289 c-1.747,1.323-3.551,1.688-5.521,1.126c-0.146-0.042-0.293-0.073-0.441-0.113c0.06,0.164,0.13,0.324,0.192,0.488 c0.043,0.012,0.088,0.021,0.131,0.034C16.346,69.67,18.331,69.267,20.165,67.876z"/>
      <path d="M16.806,70.868c1.838-0.275,3.319-1.288,4.645-2.34c1.407-1.117,3.002-1.84,4.378-2.399 c1.353-0.551,2.348-1.188,3.132-2.005c0.392-0.408,0.779-0.821,1.167-1.234c0.512-0.546,1.041-1.11,1.573-1.654 c1.136-1.162,2.5-1.73,4.074-1.665c0.556,0.02,1.122,0.069,1.668,0.117c0.453,0.04,0.921,0.081,1.383,0.105 c0.527,0.027,1.064,0.02,1.583,0.012c0.19-0.003,0.378-0.01,0.573-0.006c1.461,0,2.489,0.477,3.232,1.497 c0.446,0.613,0.91,1.229,1.359,1.822c0.451,0.599,0.918,1.218,1.366,1.833c0.216,0.297,0.403,0.625,0.583,0.942 c0.083,0.146,0.165,0.29,0.25,0.433c0.602,1.007,1.5,1.729,2.828,2.27c1.578,0.645,2.891,1.186,4.236,1.788 c0.938,0.42,1.866,0.912,2.729,1.38c1.281,0.695,2.646,0.799,4.173,0.316c1.019-0.323,2.061-0.684,3.098-1.072 c1.425-0.533,2.809-0.395,4.231,0.426c0.83,0.479,1.717,0.978,2.637,1.338c0.6,0.235,1.273,0.294,1.969,0.338 c0.565,0.035,1.141,0.043,1.697,0.051c0.549,0.008,1.116,0.016,1.671,0.05c0.701,0.043,1.414,0.137,2.103,0.228 c0.209,0.027,0.418,0.055,0.627,0.081l0.444,0.055c0.608,0.073,1.237,0.148,1.845,0.269c0.828,0.164,1.692,0.375,2.568,0.629 c1.66,0.48,3.542,1.025,5.449,1.273c0.071,0.009,0.144,0.025,0.215,0.035c0.042-0.069,0.079-0.141,0.121-0.21 c-0.102-0.015-0.205-0.036-0.307-0.049c-1.89-0.246-3.763-0.788-5.416-1.268c-0.882-0.254-1.752-0.468-2.587-0.633 c-0.615-0.121-1.249-0.197-1.862-0.271l-0.443-0.054c-0.208-0.026-0.416-0.054-0.624-0.081c-0.693-0.091-1.409-0.186-2.119-0.229 c-0.561-0.034-1.13-0.042-1.682-0.05c-0.554-0.008-1.126-0.016-1.687-0.051c-0.677-0.043-1.331-0.1-1.9-0.322 c-0.904-0.355-1.783-0.849-2.605-1.324c-1.486-0.856-2.934-1.001-4.425-0.441c-1.032,0.388-2.071,0.747-3.086,1.068 c-1.466,0.465-2.771,0.365-3.997-0.299c-0.867-0.471-1.8-0.964-2.744-1.388c-1.348-0.604-2.664-1.146-4.243-1.791 c-1.28-0.521-2.144-1.213-2.72-2.177c-0.084-0.141-0.166-0.284-0.247-0.427c-0.184-0.323-0.374-0.657-0.597-0.964 c-0.449-0.617-0.917-1.237-1.369-1.836c-0.448-0.595-0.912-1.208-1.356-1.819c-0.779-1.07-1.898-1.591-3.418-1.591 c-0.194-0.004-0.383,0.003-0.575,0.006c-0.515,0.009-1.047,0.016-1.568-0.012c-0.458-0.023-0.924-0.064-1.375-0.104 c-0.55-0.049-1.119-0.099-1.681-0.118c-1.634-0.062-3.061,0.525-4.244,1.733c-0.533,0.545-1.063,1.11-1.576,1.657 c-0.387,0.412-0.773,0.825-1.166,1.233c-0.761,0.793-1.732,1.413-3.054,1.95c-1.39,0.566-3.004,1.298-4.433,2.433 c-1.301,1.033-2.751,2.025-4.537,2.293c-0.74,0.111-1.373,0.125-1.963,0.052c0.036,0.083,0.075,0.163,0.111,0.245 C15.491,70.998,16.103,70.973,16.806,70.868z"/>
      <path d="M22.842,79.116c0.363-0.298,0.708-0.625,1.043-0.942c0.157-0.148,0.314-0.298,0.474-0.443 c0.77-0.706,1.68-1.189,2.55-1.606c0.262-0.127,0.524-0.256,0.785-0.385c0.634-0.312,1.289-0.636,1.949-0.913 c1.181-0.497,1.891-0.3,2.713,0.753c0.677,0.864,1.324,1.747,1.982,2.65c0.797,1.095,1.759,1.957,2.858,2.562 c0.77,0.424,1.649,0.716,2.688,0.895c0.822,0.143,1.661,0.185,2.473,0.226l0.513,0.027c2.006,0.116,3.869-0.257,5.688-1.131 c0.814-0.391,1.897-0.859,3.058-1.015c0.807-0.109,1.655,0.007,2.519,0.34c1.115,0.432,1.913,1.249,2.609,2.069l0.037,0.045 c0.706,0.83,1.436,1.688,2.461,2.197c0.747,0.37,1.523,0.562,2.308,0.569c0.607,0.005,1.216,0.007,1.826,0.001 c2.484-0.024,4.969-0.05,7.453-0.08c0.03,0,0.06,0,0.089,0c1.062,0,2.147,0.233,3.313,0.713c0.532,0.22,1.067,0.463,1.584,0.698 c0.558,0.254,1.136,0.518,1.714,0.752c0.687,0.277,1.292,0.445,1.852,0.514c0.112,0.013,0.221,0.001,0.33-0.004 c0.124-0.095,0.245-0.193,0.368-0.289c-0.219,0.064-0.441,0.098-0.671,0.069c-0.54-0.066-1.126-0.229-1.793-0.5 c-0.575-0.232-1.15-0.494-1.706-0.747c-0.519-0.236-1.055-0.48-1.592-0.701c-1.227-0.506-2.369-0.739-3.49-0.73 c-2.484,0.03-4.969,0.056-7.453,0.08c-0.609,0.007-1.216,0.005-1.822-0.001c-0.75-0.008-1.493-0.191-2.208-0.546 c-0.984-0.488-1.698-1.329-2.39-2.142l-0.037-0.044c-0.682-0.803-1.534-1.684-2.7-2.134c-0.9-0.347-1.785-0.465-2.631-0.354 c-1.192,0.159-2.296,0.637-3.125,1.034c-1.785,0.858-3.613,1.221-5.578,1.109l-0.514-0.027c-0.805-0.04-1.637-0.083-2.446-0.222 c-1.013-0.175-1.869-0.46-2.616-0.871c-1.07-0.588-2.007-1.428-2.784-2.495c-0.66-0.905-1.308-1.79-1.987-2.658 c-0.891-1.138-1.698-1.361-2.98-0.821c-0.666,0.279-1.324,0.604-1.961,0.919c-0.26,0.129-0.521,0.257-0.783,0.383 c-0.885,0.425-1.813,0.919-2.604,1.644c-0.16,0.147-0.318,0.297-0.477,0.447c-0.332,0.313-0.674,0.639-1.03,0.931 c-0.725,0.596-1.369,0.788-2.081,0.627c-0.303-0.069-0.586-0.179-0.864-0.314c0.094,0.125,0.193,0.246,0.288,0.371 c0.17,0.065,0.343,0.123,0.526,0.164C21.354,79.967,22.057,79.76,22.842,79.116z"/>
      <path d="M18.49,71.49c0.974-0.327,1.927-0.852,3-1.649c1.528-1.134,3.038-1.999,4.616-2.645c1.796-0.734,3.332-1.753,4.564-3.027 c0.788-0.814,1.64-1.665,2.635-2.327c1.141-0.761,2.308-1.011,3.563-0.773l0.56,0.105c0.87,0.163,1.77,0.332,2.646,0.533 c1.194,0.274,2.024,1.112,2.678,1.896l0.121,0.146c0.263,0.318,0.535,0.647,0.843,0.931c0.919,0.849,1.715,1.908,2.579,3.435 c0.672,1.188,1.701,1.889,3.145,2.144c2.366,0.418,4.19,1.133,5.74,2.248c0.687,0.494,1.438,0.996,2.288,1.318 c1.349,0.511,2.762,0.46,4.322-0.16c0.943-0.374,1.969-0.802,3.135-1.308c1.329-0.577,2.643-0.426,4.136,0.477 c0.974,0.589,2.047,1.159,3.297,1.355l0.041,0.006c0.328,0.052,0.667,0.105,1.005,0.11c0.397,0.007,0.796,0.003,1.193,0 c0.56-0.006,1.135-0.009,1.697,0.015c0.512,0.021,1.032,0.069,1.535,0.117c0.432,0.04,0.878,0.082,1.319,0.106 c1.08,0.06,2.189,0.218,3.39,0.482c0.616,0.137,1.315,0.292,1.968,0.517c1.68,0.577,3.231,0.971,4.744,1.204 c0.132,0.02,0.257,0.051,0.388,0.073c0.044-0.069,0.088-0.137,0.132-0.206c-0.163-0.028-0.321-0.066-0.485-0.091 c-1.5-0.23-3.039-0.621-4.705-1.194c-0.665-0.229-1.37-0.385-1.993-0.522c-1.212-0.269-2.333-0.428-3.427-0.488 c-0.437-0.024-0.881-0.065-1.31-0.106c-0.507-0.047-1.03-0.096-1.547-0.117c-0.572-0.024-1.151-0.02-1.708-0.015 c-0.395,0.003-0.792,0.007-1.188,0c-0.322-0.005-0.653-0.057-0.974-0.107l-0.041-0.007c-1.211-0.189-2.261-0.748-3.215-1.324 c-1.538-0.932-2.959-1.091-4.343-0.492c-1.164,0.506-2.188,0.933-3.129,1.306c-1.506,0.597-2.866,0.648-4.158,0.158 c-0.824-0.312-1.562-0.805-2.235-1.289c-1.579-1.137-3.432-1.863-5.833-2.287c-1.373-0.243-2.35-0.907-2.986-2.032 c-0.876-1.548-1.685-2.624-2.622-3.489c-0.297-0.273-0.564-0.597-0.822-0.909l-0.122-0.146c-0.678-0.813-1.541-1.683-2.801-1.972 c-0.88-0.202-1.782-0.372-2.655-0.535l-0.559-0.105c-1.301-0.25-2.555,0.024-3.732,0.807c-1.014,0.676-1.876,1.535-2.672,2.358 c-1.211,1.252-2.721,2.253-4.487,2.977c-1.596,0.652-3.122,1.526-4.665,2.672c-1.053,0.783-1.986,1.296-2.937,1.616 c-1.146,0.386-2.148,0.554-3.103,0.539c0.036,0.077,0.069,0.156,0.105,0.233C16.369,72.05,17.363,71.871,18.49,71.49z"/>
      <path d="M28.238,81.701l0.201-0.149c0.417-0.308,0.888-0.577,1.362-0.777c0.784-0.332,1.61-0.286,2.524,0.139 c0.783,0.364,1.498,0.865,2.189,1.35c0.228,0.159,0.455,0.318,0.685,0.474c0.371,0.249,0.74,0.5,1.109,0.75 c0.714,0.484,1.452,0.985,2.186,1.467c0.594,0.391,1.31,0.64,2.187,0.762c0.785,0.109,1.821,0.235,2.869,0.235 c1.22,0,2.38-0.181,3.448-0.537c0.92-0.308,1.88-0.566,2.727-0.795c1.31-0.353,2.655-0.173,4.118,0.552 c0.597,0.296,1.193,0.62,1.77,0.935c0.537,0.293,1.091,0.595,1.647,0.874c0.856,0.43,1.824,0.712,3.045,0.887 c1.003,0.143,2.026,0.266,3.015,0.384l0.119,0.014c0.369,0.044,0.75,0.064,1.078,0.081c0.675,0.032,1.35,0.058,2.023,0.08 c0.355,0.012,0.711,0.021,1.066,0.03c0.543,0.015,1.086,0.029,1.629,0.053c0.193,0.009,0.387,0.016,0.58,0.023 c0.706,0.026,1.437,0.054,2.146,0.142c1.477,0.184,2.848,0.682,4.089,1.458c0.072-0.044,0.141-0.092,0.213-0.137 c-1.294-0.827-2.727-1.354-4.275-1.546c-0.718-0.09-1.453-0.117-2.164-0.144c-0.193-0.008-0.387-0.015-0.579-0.023 c-0.544-0.023-1.089-0.038-1.633-0.053c-0.354-0.009-0.71-0.019-1.064-0.03c-0.674-0.022-1.347-0.048-2.02-0.08 c-0.324-0.016-0.701-0.036-1.062-0.079l-0.119-0.015c-0.987-0.118-2.009-0.24-3.011-0.383c-1.194-0.171-2.14-0.446-2.975-0.865 c-0.553-0.277-1.105-0.578-1.641-0.87c-0.578-0.315-1.176-0.641-1.777-0.938c-1.515-0.751-2.914-0.936-4.277-0.567 c-0.851,0.229-1.814,0.489-2.741,0.799c-1.044,0.349-2.18,0.525-3.376,0.525c-1.034,0-2.06-0.125-2.837-0.233 c-0.843-0.117-1.528-0.354-2.093-0.727c-0.732-0.481-1.47-0.981-2.183-1.465c-0.37-0.251-0.739-0.501-1.109-0.75 c-0.229-0.154-0.456-0.313-0.682-0.472c-0.7-0.49-1.423-0.997-2.224-1.369c-0.977-0.453-1.862-0.501-2.708-0.143 c-0.49,0.208-0.978,0.485-1.409,0.805l-0.201,0.148c-0.804,0.597-1.635,1.214-2.594,1.567c-0.585,0.217-1.239,0.437-1.927,0.618 c0.061,0.062,0.119,0.127,0.18,0.189c0.652-0.177,1.27-0.388,1.826-0.594C26.577,82.934,27.422,82.307,28.238,81.701z"/>
      <path d="M29.414,86.453c0.26-0.226,0.519-0.452,0.806-0.674c0.37-0.287,0.752-0.583,1.163-0.744 c0.981-0.385,1.93-0.186,2.821,0.592c0.444,0.388,0.866,0.823,1.274,1.244c0.248,0.255,0.495,0.51,0.75,0.758 c0.913,0.89,1.986,1.374,3.189,1.438c1.601,0.085,3.021,0.112,4.337,0.078c1.401-0.036,2.792-0.385,4.252-1.067 c1.024-0.479,1.878-0.712,2.687-0.735c0.898-0.042,1.789,0.236,2.739,0.798c1.421,0.841,2.922,1.389,4.589,1.674 c1.08,0.184,2.168,0.444,3.221,0.696c0.722,0.173,1.444,0.346,2.171,0.497c0.89,0.186,1.794,0.284,2.639,0.363 c0.459,0.042,0.92,0.062,1.382,0.083c0.483,0.021,0.983,0.042,1.469,0.092l0.245,0.024c1.078,0.107,2.182,0.233,3.221,0.577 c0.177-0.086,0.349-0.181,0.526-0.269c-1.196-0.471-2.47-0.608-3.704-0.731l-0.244-0.025c-0.498-0.05-1.004-0.072-1.493-0.093 c-0.455-0.021-0.909-0.04-1.361-0.082c-0.832-0.078-1.722-0.175-2.592-0.355c-0.722-0.15-1.44-0.322-2.158-0.494 c-1.06-0.254-2.154-0.517-3.247-0.703c-1.615-0.275-3.069-0.806-4.445-1.619c-1.021-0.605-2.003-0.889-2.968-0.858 c-0.87,0.025-1.776,0.272-2.854,0.776c-1.406,0.656-2.741,0.992-4.083,1.026c-1.303,0.035-2.712,0.009-4.304-0.076 c-1.097-0.059-2.078-0.502-2.915-1.318c-0.251-0.245-0.497-0.497-0.741-0.749c-0.414-0.428-0.842-0.869-1.3-1.269 c-1.004-0.878-2.131-1.105-3.255-0.668c-0.468,0.185-0.875,0.499-1.282,0.815c-0.279,0.215-0.545,0.447-0.811,0.679 c-0.257,0.225-0.515,0.449-0.784,0.658c-0.257,0.199-0.53,0.338-0.81,0.45c0.129,0.102,0.258,0.205,0.389,0.306 c0.236-0.114,0.464-0.251,0.681-0.42C28.887,86.913,29.15,86.684,29.414,86.453z"/>
      <path d="M41.229,17.399c0.25,0.161,0.5,0.324,0.749,0.487c0.622,0.406,1.265,0.827,1.915,1.214c1.128,0.674,2.37,1.083,3.69,1.216 c1.048,0.106,2.086,0.239,3.085,0.396c1.156,0.182,2.042,0.867,2.757,1.512c0.213,0.193,0.424,0.389,0.635,0.585 c0.461,0.429,0.938,0.873,1.438,1.274c0.898,0.722,2.009,1.205,3.494,1.521c0.809,0.172,1.695,0.277,2.712,0.322 c1.009,0.045,2.008-0.151,2.975-0.34l0.384-0.075c0.874-0.167,1.75-0.267,2.645-0.361c1.744-0.183,3.355,0.334,4.701,0.866 c2.102,0.829,4.042,1.396,5.933,1.736c0.641,0.115,1.297,0.191,1.933,0.265c0.388,0.045,0.776,0.09,1.163,0.144 c0.406,0.057,0.813,0.102,1.221,0.148c0.956,0.107,1.943,0.218,2.892,0.473c1.017,0.274,2.029,0.741,3.096,1.425 c0.317,0.203,0.631,0.41,0.946,0.616c-0.1-0.155-0.196-0.312-0.298-0.465c-0.175-0.114-0.349-0.229-0.525-0.342 c-1.087-0.697-2.12-1.172-3.16-1.453c-0.964-0.26-1.961-0.372-2.925-0.48c-0.405-0.045-0.811-0.091-1.215-0.147 c-0.389-0.054-0.778-0.099-1.169-0.145c-0.631-0.073-1.284-0.148-1.917-0.263c-1.877-0.336-3.803-0.9-5.89-1.724 c-1.372-0.542-3.018-1.069-4.809-0.88c-0.9,0.095-1.78,0.194-2.664,0.364l-0.385,0.075c-0.954,0.186-1.942,0.381-2.921,0.336 c-1.004-0.044-1.879-0.148-2.675-0.317c-1.449-0.309-2.529-0.778-3.398-1.477c-0.493-0.396-0.967-0.837-1.426-1.264 c-0.211-0.197-0.423-0.394-0.637-0.587c-0.74-0.668-1.66-1.377-2.875-1.568c-1.003-0.158-2.045-0.292-3.098-0.398 c-1.287-0.13-2.497-0.528-3.597-1.185c-0.645-0.386-1.287-0.805-1.907-1.21c-0.25-0.163-0.499-0.326-0.75-0.487 c-0.52-0.335-1.06-0.653-1.583-0.962c-0.826-0.486-1.666-0.99-2.455-1.569c-0.081,0.034-0.159,0.073-0.239,0.108 c0.826,0.618,1.712,1.146,2.579,1.657C40.175,16.749,40.714,17.067,41.229,17.399z"/>
      <path d="M90.226,33.931l-0.611-0.211c-0.738-0.254-1.501-0.517-2.228-0.822c-0.36-0.151-0.716-0.315-1.071-0.478 c-0.896-0.411-1.822-0.836-2.816-1.06c-0.698-0.157-1.418-0.244-2.114-0.328l-0.738-0.091c-0.842-0.106-1.712-0.215-2.574-0.257 c-0.678-0.034-1.367,0.005-2.031,0.044l-0.447,0.025c-1.063,0.056-2.12,0.373-3.141,0.944c-0.4,0.224-0.759,0.499-1.038,0.795 c-0.439,0.468-0.477,1.022-0.104,1.562c0.443,0.643,1.1,1.109,2.006,1.424c0.775,0.271,1.57,0.52,2.339,0.761l0.757,0.238 c1.043,0.331,2.233,0.792,3.158,1.702c0.532,0.523,0.958,1.202,1.265,2.018c0.386,1.021,0.631,2.153,0.795,3.672 c0.132,1.221,0.298,2.212,0.523,3.119c0.374,1.51,1.348,2.721,2.977,3.702c1.343,0.809,2.815,1.362,4.115,1.851 c0.974,0.365,1.956,0.762,2.906,1.145c0.789,0.318,1.577,0.636,2.37,0.94c0.547,0.21,1.114,0.388,1.662,0.561 c0.053,0.017,0.106,0.034,0.159,0.051c0.005-0.147,0.008-0.295,0.011-0.443c-0.015-0.005-0.029-0.009-0.044-0.014 c-0.542-0.17-1.102-0.346-1.637-0.551c-0.791-0.304-1.577-0.622-2.363-0.938c-0.952-0.384-1.938-0.781-2.916-1.149 c-1.282-0.481-2.735-1.027-4.046-1.816c-1.526-0.92-2.438-2.045-2.783-3.44c-0.22-0.887-0.383-1.86-0.514-3.062 c-0.168-1.556-0.42-2.721-0.818-3.776c-0.329-0.874-0.788-1.604-1.364-2.17c-0.99-0.974-2.238-1.459-3.328-1.805l-0.759-0.239 c-0.766-0.24-1.558-0.488-2.325-0.756c-0.818-0.285-1.406-0.698-1.797-1.264c-0.261-0.378-0.24-0.705,0.065-1.03 c0.249-0.265,0.572-0.512,0.935-0.715c0.963-0.539,1.957-0.838,2.955-0.89l0.449-0.025c0.655-0.038,1.335-0.076,1.986-0.044 c0.847,0.042,1.709,0.149,2.542,0.254l0.741,0.091c0.686,0.083,1.395,0.168,2.071,0.321c0.951,0.213,1.857,0.629,2.732,1.031 c0.36,0.165,0.72,0.33,1.085,0.483c0.738,0.311,1.509,0.576,2.253,0.832l0.609,0.211c0.374,0.131,0.753,0.249,1.132,0.367 c0.237,0.074,0.477,0.154,0.716,0.232c-0.09-0.18-0.182-0.358-0.275-0.536c-0.105-0.033-0.211-0.07-0.315-0.102 C90.97,34.177,90.595,34.06,90.226,33.931z"/>
      <path d="M44.922,17.036c0.843,0.525,1.854,0.869,3.092,1.052c0.475,0.07,0.95,0.131,1.426,0.193 c0.677,0.088,1.376,0.179,2.06,0.292c1.389,0.231,2.498,0.996,3.399,1.713c0.212,0.168,0.421,0.338,0.631,0.509 c0.579,0.47,1.178,0.956,1.801,1.389c0.879,0.611,1.934,0.997,3.135,1.146c1.084,0.137,2.23,0.086,3.604-0.158 c0.59-0.105,1.241-0.18,2.049-0.237c0.78-0.056,1.54-0.103,2.287-0.076c1.535,0.057,2.977,0.382,4.283,0.965 c1.264,0.564,2.599,1.125,3.968,1.667c1.121,0.443,2.362,0.72,3.797,0.845c0.436,0.039,0.872,0.072,1.309,0.105 c0.555,0.042,1.109,0.085,1.663,0.137c0.262,0.025,0.523,0.047,0.785,0.07c0.845,0.073,1.719,0.148,2.564,0.296 c-0.071-0.086-0.142-0.173-0.213-0.258c-0.775-0.123-1.564-0.198-2.331-0.264c-0.262-0.022-0.522-0.045-0.783-0.069 c-0.556-0.053-1.111-0.095-1.667-0.138c-0.436-0.034-0.871-0.067-1.307-0.105c-1.412-0.124-2.633-0.395-3.732-0.83 c-1.367-0.541-2.699-1.1-3.96-1.663c-1.333-0.595-2.802-0.927-4.367-0.985c-0.752-0.028-1.524,0.02-2.311,0.076 c-0.816,0.058-1.475,0.134-2.072,0.24c-1.351,0.24-2.474,0.291-3.537,0.157c-1.163-0.146-2.184-0.519-3.033-1.108 c-0.615-0.427-1.211-0.911-1.786-1.378c-0.211-0.171-0.421-0.342-0.633-0.511c-0.924-0.735-2.063-1.52-3.503-1.759 c-0.687-0.115-1.389-0.206-2.067-0.293c-0.475-0.062-0.949-0.123-1.422-0.193c-1.207-0.178-2.189-0.511-3.005-1.02 c-1.471-0.917-2.679-1.71-3.8-2.495c-0.344-0.241-0.686-0.495-1.021-0.762c-0.083,0.028-0.166,0.056-0.249,0.084 c0.373,0.304,0.755,0.594,1.14,0.864C42.236,15.321,43.447,16.116,44.922,17.036z"/>
      <path d="M46.078,16.098c0.723,0.35,1.537,0.588,2.49,0.728c0.375,0.055,0.751,0.099,1.128,0.144 c0.948,0.112,1.929,0.229,2.863,0.515c1.349,0.413,2.46,1.208,3.369,1.931l0.327,0.261c0.752,0.604,1.53,1.229,2.434,1.652 c0.884,0.414,1.792,0.633,2.701,0.65c0.928,0.016,1.876-0.058,2.878-0.231c0.498-0.086,1.02-0.115,1.523-0.144l0.686-0.042 c0.517-0.035,1.048-0.068,1.571-0.054c2,0.061,3.775,0.457,5.429,1.211c0.353,0.161,0.704,0.326,1.056,0.491 c0.884,0.415,1.798,0.843,2.723,1.201c0.924,0.355,1.957,0.586,3.352,0.747c1.24,0.143,2.542,0.22,3.978,0.234 c0.303,0.003,0.597,0.019,0.888,0.039c-0.07-0.078-0.14-0.158-0.211-0.236c-0.223-0.012-0.444-0.027-0.675-0.03 c-1.428-0.014-2.721-0.09-3.954-0.233c-1.374-0.159-2.391-0.385-3.295-0.733c-0.918-0.354-1.828-0.781-2.709-1.194 c-0.352-0.165-0.704-0.33-1.058-0.491c-1.658-0.756-3.514-1.171-5.516-1.231c-0.528-0.019-1.071,0.02-1.593,0.055l-0.684,0.042 c-0.511,0.029-1.038,0.058-1.55,0.146c-0.986,0.17-1.915,0.242-2.835,0.228c-0.876-0.017-1.754-0.228-2.609-0.628 c-0.878-0.412-1.646-1.028-2.388-1.624l-0.328-0.262c-0.926-0.736-2.059-1.546-3.443-1.97c-0.954-0.292-1.944-0.41-2.902-0.523 c-0.375-0.044-0.749-0.089-1.122-0.144c-0.93-0.136-1.723-0.367-2.425-0.707c-1.593-0.772-2.988-1.824-4.281-2.837 c-0.089,0.026-0.178,0.049-0.266,0.076c0.037,0.029,0.075,0.063,0.112,0.092C43.047,14.248,44.458,15.313,46.078,16.098z"/>
      <path d="M47.206,15.302c0.744,0.23,1.411,0.387,2.039,0.478c0.316,0.046,0.634,0.085,0.951,0.125 c0.969,0.12,1.971,0.243,2.909,0.565c1.014,0.348,2.015,0.905,3.146,1.753l0.428,0.323c0.667,0.505,1.356,1.028,2.087,1.457 c1.214,0.713,2.639,0.952,4.229,0.708c0.507-0.078,1.01-0.13,1.494-0.157c0.29-0.016,0.58-0.034,0.87-0.053 c0.896-0.057,1.824-0.118,2.729-0.095c2.146,0.049,3.999,0.456,5.664,1.242l0.68,0.322c0.839,0.399,1.707,0.813,2.579,1.179 c0.999,0.42,2.083,0.713,3.312,0.898c1.03,0.154,2.078,0.187,3.092,0.217c0.281,0.009,0.563,0.017,0.846,0.028l0.144,0.005 c-0.075-0.078-0.148-0.158-0.224-0.235c-0.253-0.01-0.506-0.018-0.758-0.025c-1.007-0.031-2.048-0.062-3.065-0.215 c-1.21-0.181-2.276-0.47-3.258-0.882c-0.867-0.364-1.732-0.776-2.569-1.174l-0.68-0.323c-1.695-0.8-3.578-1.213-5.756-1.263 c-0.914-0.02-1.849,0.039-2.75,0.095c-0.289,0.019-0.578,0.037-0.867,0.053c-0.492,0.027-1.003,0.081-1.518,0.159 c-1.538,0.236-2.913,0.007-4.079-0.678c-0.72-0.422-1.403-0.941-2.064-1.442l-0.429-0.324c-1.152-0.863-2.172-1.431-3.21-1.787 c-0.96-0.329-1.974-0.454-2.954-0.575c-0.316-0.039-0.632-0.078-0.947-0.124c-0.616-0.089-1.271-0.243-2.003-0.47 c-0.97-0.3-1.784-0.842-2.747-1.521c-0.398-0.28-0.815-0.582-1.228-0.903c-0.092,0.024-0.183,0.05-0.275,0.074 c0.459,0.366,0.928,0.702,1.372,1.014C45.376,14.44,46.205,14.992,47.206,15.302z"/>
      <path d="M49.162,14.605c0.274,0.042,0.549,0.083,0.824,0.124c1.034,0.154,2.103,0.312,3.128,0.563 c1.637,0.4,3.022,1.374,4.062,2.191c0.752,0.591,1.528,1.202,2.435,1.575c0.567,0.234,1.202,0.349,1.762,0.451 c0.774,0.141,1.545,0.048,2.29-0.043c0.312-0.038,0.633-0.077,0.949-0.097c0.936-0.062,1.975-0.082,3.242-0.084 c2.478,0.009,4.668,0.494,6.694,1.483c1.18,0.576,2.44,1.178,3.741,1.657c1.082,0.399,2.265,0.621,3.517,0.661 c0.272,0.009,0.546,0.014,0.819,0.019c0.198,0.004,0.402,0.019,0.603,0.024c-0.085-0.081-0.169-0.162-0.254-0.242 c-0.115-0.002-0.232-0.006-0.345-0.008c-0.272-0.005-0.544-0.01-0.815-0.019c-1.228-0.039-2.387-0.256-3.446-0.647 c-1.29-0.476-2.545-1.075-3.72-1.648c-2.059-1.003-4.28-1.496-6.794-1.505c-1.283-0.008-2.317,0.021-3.258,0.084 c-0.321,0.021-0.646,0.061-0.961,0.099c-0.729,0.088-1.484,0.178-2.222,0.045c-0.549-0.1-1.172-0.213-1.717-0.438 c-0.876-0.361-1.641-0.962-2.396-1.557c-1.042-0.818-2.454-1.81-4.133-2.221c-1.035-0.253-2.109-0.412-3.148-0.566 c-0.274-0.041-0.548-0.082-0.822-0.124c-1.001-0.155-1.856-0.44-2.611-0.873c-0.685-0.391-1.282-0.782-1.813-1.187 c-0.093,0.02-0.186,0.043-0.279,0.064c0.575,0.452,1.222,0.887,1.979,1.32C47.252,14.152,48.132,14.446,49.162,14.605z"/>
      <path d="M50.547,13.237c1.119,0.148,2.275,0.3,3.363,0.669c1.248,0.423,2.489,1.106,3.908,2.151l0.282,0.209 c0.645,0.481,1.312,0.979,2.116,1.245c0.479,0.158,0.99,0.316,1.515,0.358c0.906,0.074,1.592,0.074,2.22,0 c1.239-0.146,2.593-0.187,4.131-0.127c1.018,0.04,2.053,0.194,3.07,0.346c1.936,0.288,3.725,1.137,5.251,1.91 c1.523,0.773,2.828,1.232,4.104,1.444c0.335,0.055,0.661,0.081,0.992,0.119c-0.192-0.165-0.379-0.336-0.575-0.498 c-0.117-0.017-0.23-0.022-0.347-0.042c-1.232-0.204-2.497-0.65-3.982-1.403c-1.555-0.789-3.382-1.654-5.396-1.955 c-1.013-0.15-2.06-0.307-3.101-0.347c-1.562-0.062-2.937-0.019-4.196,0.13c-0.601,0.07-1.26,0.07-2.136-0.001 c-0.479-0.039-0.963-0.188-1.417-0.338c-0.738-0.244-1.377-0.721-1.995-1.183l-0.284-0.211c-1.455-1.071-2.733-1.774-4.023-2.211 c-1.128-0.382-2.306-0.538-3.444-0.688c-0.253-0.033-0.506-0.067-0.759-0.103c-0.928-0.131-1.78-0.429-2.587-0.862 c-0.22,0.034-0.437,0.079-0.656,0.117c0.98,0.609,2.029,1.003,3.183,1.166C50.038,13.17,50.292,13.204,50.547,13.237z"/>
      <path d="M90.446,36.584l-0.759-0.043c-0.633-0.035-1.265-0.071-1.896-0.118c-0.349-0.026-0.696-0.059-1.044-0.092 c-0.542-0.052-1.104-0.106-1.657-0.129c-0.381-0.017-0.782,0.057-1.151,0.205c-0.703,0.28-1.106,0.836-1.234,1.701 c-0.143,0.961-0.036,1.915,0.085,2.809c0.045,0.338,0.074,0.685,0.102,1.021c0.02,0.227,0.038,0.454,0.062,0.68 c0.074,0.714,0.155,1.428,0.237,2.142c0.014,0.121,0.024,0.243,0.035,0.365c0.029,0.314,0.06,0.64,0.131,0.954 c0.3,1.324,1.038,2.374,2.255,3.209c1.114,0.764,2.341,1.25,3.284,1.588c0.353,0.126,0.705,0.251,1.058,0.376 c1.787,0.634,3.636,1.29,5.398,2.076c0.326,0.146,0.674,0.248,1.011,0.346c0.003,0.001,0.007,0.002,0.01,0.003 c0-0.08-0.005-0.159-0.006-0.239c-0.311-0.091-0.629-0.187-0.923-0.318c-1.771-0.789-3.623-1.447-5.414-2.083 c-0.353-0.125-0.705-0.25-1.058-0.376c-0.931-0.333-2.139-0.812-3.231-1.562c-1.169-0.801-1.876-1.806-2.163-3.071 c-0.067-0.3-0.097-0.618-0.125-0.925c-0.012-0.124-0.023-0.247-0.037-0.371c-0.082-0.713-0.163-1.426-0.237-2.139 c-0.023-0.225-0.042-0.45-0.061-0.675c-0.028-0.339-0.058-0.689-0.104-1.033c-0.119-0.878-0.223-1.813-0.085-2.746 c0.114-0.778,0.473-1.276,1.094-1.523c0.34-0.137,0.722-0.208,1.058-0.189c0.548,0.023,1.105,0.077,1.646,0.128 c0.35,0.034,0.698,0.067,1.048,0.093c0.633,0.046,1.267,0.082,1.9,0.118l0.758,0.043c0.822,0.049,1.596,0.303,2.365,0.777 c0.185,0.114,0.341,0.251,0.501,0.386c-0.055-0.136-0.105-0.274-0.161-0.41c-0.077-0.054-0.139-0.119-0.221-0.169 C92.114,36.901,91.307,36.636,90.446,36.584z"/>
      <path d="M40.592,93.535c-1.854-1.153-3.916-2.105-6.127-2.83c-0.716-0.236-1.422-0.288-2.108-0.168 c0.112,0.066,0.225,0.129,0.337,0.194c0.556-0.052,1.123,0.001,1.701,0.189c2.194,0.72,4.239,1.664,6.077,2.809 c0.317,0.197,0.568,0.456,0.783,0.749c0.121,0.037,0.244,0.067,0.365,0.104C41.365,94.153,41.022,93.803,40.592,93.535z"/>
      <path d="M44.898,93.803c1.275-1.023,2.674-1.795,4.159-2.294c0.932-0.312,1.839-0.252,2.775,0.187 c0.654,0.307,1.3,0.548,1.921,0.717c0.729,0.198,1.486,0.121,2.261,0.017c2.055-0.273,3.683-0.115,5.135,0.506l0.51,0.218 c0.792,0.341,1.611,0.692,2.431,1.006c0.576,0.221,1.218,0.357,1.906,0.452c0.177-0.053,0.357-0.098,0.533-0.153 c-0.881-0.079-1.658-0.243-2.358-0.51c-0.815-0.312-1.632-0.663-2.422-1.003l-0.51-0.219c-1.492-0.638-3.164-0.804-5.254-0.521 c-0.781,0.105-1.484,0.177-2.172-0.011c-0.608-0.165-1.242-0.401-1.884-0.703c-0.991-0.465-1.954-0.529-2.944-0.196 c-1.51,0.508-2.933,1.292-4.228,2.331c-0.515,0.414-0.912,0.916-1.195,1.49c0.074,0.018,0.15,0.034,0.224,0.052 C44.052,94.642,44.423,94.183,44.898,93.803z"/>
      <path d="M90.739,46.791c-0.875-0.563-1.707-0.838-2.542-0.838c-0.033,0-0.066,0-0.1,0.001c-1.072,0.027-1.32,0.584-1.34,1.047 l0.227,0.01c0.022-0.541,0.389-0.812,1.119-0.831c0.832-0.016,1.643,0.24,2.513,0.8c0.705,0.454,1.155,0.92,1.415,1.467 c0.104,0.221,0.136,0.358,0.101,0.444c-0.037,0.09-0.164,0.169-0.424,0.264c-0.077,0.027-0.175,0.031-0.27,0.034l-0.053,0.002 c-0.955,0.038-1.926-0.179-2.957-0.668c-0.607-0.287-1.254-0.69-1.447-1.504l-0.221,0.053c0.216,0.907,0.915,1.346,1.57,1.656 c0.984,0.466,1.914,0.694,2.836,0.694c0.076,0,0.152-0.002,0.229-0.005l0.051-0.002c0.112-0.003,0.228-0.007,0.339-0.047 c0.279-0.101,0.48-0.206,0.557-0.39c0.063-0.155,0.032-0.337-0.105-0.628C91.957,47.764,91.481,47.269,90.739,46.791z"/>
    </g>
  </g>
  <g id="Ebene_6" display="">
    <g display="inline">
      <path d="M49.93,53.534c0-2.956,1.779-4.762,4.216-4.762c1.275,0,2.116,0.574,2.648,1.134l-0.645,0.757 c-0.463-0.477-1.051-0.869-1.976-0.869c-1.849,0-3.04,1.429-3.04,3.712c0,2.312,1.093,3.769,3.054,3.769 c0.658,0,1.289-0.21,1.653-0.547v-2.395h-1.947v-0.967h3.012v3.867c-0.588,0.616-1.597,1.064-2.83,1.064 C51.652,58.297,49.93,56.532,49.93,53.534z"/>
      <path d="M62.212,55.663h-4.02v-0.756l3.823-5.715h1.289v5.547h1.219v0.924h-1.219v2.466h-1.093V55.663z M62.212,54.739v-2.592 c0-0.476,0.042-1.247,0.07-1.723h-0.056c-0.225,0.434-0.477,0.826-0.729,1.261l-2.087,3.054H62.212z"/>
      <path d="M69.561,55.663H65.54v-0.756l3.824-5.715h1.288v5.547h1.219v0.924h-1.219v2.466h-1.092V55.663z M69.561,54.739v-2.592 c0-0.476,0.042-1.247,0.069-1.723h-0.056c-0.225,0.434-0.477,0.826-0.729,1.261l-2.087,3.054H69.561z"/>
    </g>
  </g>
  <text id="g-vis-text-1" class="align-center font-type-1 text-prop" x="31" y="40.5">Jubilum 2024</text>
  <text id="g-vis-text-2" class="align-center font-type-1 text-prop" x="31" y="46">21.04.1865</text>
  <text id="g-vis-text-3" class="align-center font-type-1 text-prop" x="31" y="51.5">techn. Prototyp</text>
</svg>
