<?xml version="1.0" encoding="utf-8"?>
<svg version="1.1" x="0px" y="0px" viewBox="0 0 136.1 136.1" style="enable-background:new 0 0 136.1 136.1;" xmlns="http://www.w3.org/2000/svg">
  <style>
		.align-center{text-anchor:middle;}
    	.align-left{text-anchor:start;}
    	.align-right{text-anchor:end;}
    	.font-type-1{font-family:"Source Sans 3";}
    	.text-prop{font-size:4.4px; fill:#707070; letter-spacing: 0.01em; text-rendering="optimizeLegibility";}
	</style>
  <g id="g-vis-engraving">
    <path style="fill: rgb(122, 122, 122);"/>
    <path d="M 27.163 55 L 27.163 54.701 L 27.805 54.701 L 27.805 52.633 L 27.295 52.633 L 27.295 52.4 Q 27.484 52.364 27.629 52.314 Q 27.775 52.263 27.889 52.193 L 28.166 52.193 L 28.166 54.701 L 28.747 54.701 L 28.747 55 Z M 30.031 55.053 Q 29.807 55.053 29.635 54.998 Q 29.464 54.943 29.336 54.855 Q 29.208 54.767 29.112 54.67 L 29.288 54.432 Q 29.415 54.556 29.582 54.655 Q 29.75 54.754 29.996 54.754 Q 30.168 54.754 30.306 54.674 Q 30.445 54.595 30.528 54.452 Q 30.612 54.309 30.612 54.111 Q 30.612 53.821 30.449 53.658 Q 30.286 53.495 30.014 53.495 Q 29.873 53.495 29.767 53.539 Q 29.662 53.583 29.534 53.667 L 29.34 53.544 L 29.433 52.193 L 30.836 52.193 L 30.836 52.505 L 29.75 52.505 L 29.675 53.337 Q 29.776 53.284 29.877 53.253 Q 29.978 53.222 30.106 53.222 Q 30.348 53.222 30.546 53.315 Q 30.744 53.407 30.861 53.603 Q 30.977 53.799 30.977 54.102 Q 30.977 54.406 30.843 54.619 Q 30.709 54.833 30.493 54.943 Q 30.278 55.053 30.031 55.053 Z M 32.091 55.053 Q 31.866 55.053 31.699 54.967 Q 31.532 54.881 31.413 54.758 L 31.616 54.529 Q 31.704 54.63 31.825 54.692 Q 31.946 54.754 32.078 54.754 Q 32.28 54.754 32.447 54.633 Q 32.614 54.512 32.718 54.237 Q 32.821 53.962 32.821 53.491 Q 32.821 53.143 32.746 52.908 Q 32.672 52.672 32.533 52.549 Q 32.394 52.426 32.192 52.426 Q 32.056 52.426 31.946 52.503 Q 31.836 52.58 31.77 52.719 Q 31.704 52.857 31.704 53.042 Q 31.704 53.222 31.763 53.357 Q 31.822 53.491 31.937 53.563 Q 32.051 53.636 32.223 53.636 Q 32.359 53.636 32.522 53.546 Q 32.685 53.456 32.826 53.24 L 32.839 53.526 Q 32.711 53.702 32.526 53.805 Q 32.342 53.909 32.161 53.909 Q 31.919 53.909 31.739 53.812 Q 31.558 53.715 31.462 53.522 Q 31.365 53.328 31.365 53.042 Q 31.365 52.774 31.477 52.569 Q 31.589 52.364 31.778 52.252 Q 31.968 52.14 32.192 52.14 Q 32.399 52.14 32.577 52.224 Q 32.755 52.307 32.885 52.477 Q 33.015 52.646 33.087 52.899 Q 33.16 53.152 33.16 53.491 Q 33.16 53.913 33.072 54.212 Q 32.984 54.512 32.834 54.696 Q 32.685 54.881 32.493 54.967 Q 32.302 55.053 32.091 55.053 Z M 35.166 55.053 Q 34.906 55.053 34.713 54.936 Q 34.519 54.82 34.4 54.586 L 34.647 54.424 Q 34.735 54.582 34.86 54.655 Q 34.985 54.727 35.144 54.727 Q 35.381 54.727 35.498 54.584 Q 35.615 54.441 35.615 54.107 L 35.615 52.114 L 35.98 52.114 L 35.98 54.142 Q 35.98 54.393 35.898 54.6 Q 35.817 54.806 35.637 54.93 Q 35.456 55.053 35.166 55.053 Z M 37.217 55.053 Q 37.041 55.053 36.898 54.98 Q 36.755 54.908 36.671 54.773 Q 36.587 54.639 36.587 54.446 Q 36.587 54.085 36.904 53.9 Q 37.221 53.715 37.907 53.64 Q 37.903 53.508 37.866 53.385 Q 37.828 53.262 37.731 53.187 Q 37.635 53.112 37.463 53.112 Q 37.278 53.112 37.115 53.181 Q 36.953 53.249 36.825 53.332 L 36.684 53.086 Q 36.781 53.02 36.913 52.956 Q 37.045 52.892 37.199 52.851 Q 37.353 52.809 37.525 52.809 Q 37.784 52.809 37.949 52.917 Q 38.114 53.024 38.191 53.222 Q 38.268 53.42 38.268 53.689 L 38.268 55 L 37.969 55 L 37.938 54.745 L 37.925 54.745 Q 37.771 54.872 37.595 54.963 Q 37.419 55.053 37.217 55.053 Z M 37.318 54.754 Q 37.476 54.754 37.615 54.683 Q 37.753 54.613 37.907 54.476 L 37.907 53.9 Q 37.547 53.944 37.338 54.012 Q 37.129 54.08 37.036 54.182 Q 36.944 54.283 36.944 54.424 Q 36.944 54.6 37.054 54.677 Q 37.164 54.754 37.318 54.754 Z M 38.941 55 L 38.941 51.867 L 39.302 51.867 L 39.302 52.721 L 39.288 53.161 Q 39.442 53.016 39.612 52.912 Q 39.781 52.809 40.001 52.809 Q 40.34 52.809 40.496 53.022 Q 40.652 53.236 40.652 53.645 L 40.652 55 L 40.292 55 L 40.292 53.693 Q 40.292 53.39 40.197 53.255 Q 40.102 53.121 39.887 53.121 Q 39.724 53.121 39.594 53.205 Q 39.464 53.288 39.302 53.451 L 39.302 55 Z M 41.334 55 L 41.334 52.862 L 41.633 52.862 L 41.664 53.249 L 41.677 53.249 Q 41.783 53.046 41.941 52.928 Q 42.1 52.809 42.285 52.809 Q 42.355 52.809 42.408 52.818 Q 42.461 52.826 42.513 52.853 L 42.434 53.161 Q 42.386 53.148 42.344 53.141 Q 42.302 53.134 42.236 53.134 Q 42.1 53.134 41.952 53.244 Q 41.805 53.354 41.695 53.627 L 41.695 55 Z M 43.685 55.053 Q 43.399 55.053 43.163 54.919 Q 42.928 54.784 42.791 54.536 Q 42.655 54.287 42.655 53.931 Q 42.655 53.583 42.796 53.332 Q 42.937 53.082 43.157 52.945 Q 43.377 52.809 43.623 52.809 Q 43.896 52.809 44.087 52.934 Q 44.279 53.06 44.375 53.284 Q 44.472 53.508 44.472 53.812 Q 44.472 53.869 44.47 53.922 Q 44.468 53.975 44.455 54.028 L 42.915 54.028 L 42.915 53.742 L 44.147 53.742 Q 44.147 53.434 44.012 53.269 Q 43.878 53.104 43.627 53.104 Q 43.482 53.104 43.341 53.185 Q 43.201 53.266 43.11 53.447 Q 43.02 53.627 43.02 53.926 Q 43.02 54.199 43.115 54.384 Q 43.209 54.569 43.372 54.663 Q 43.535 54.758 43.729 54.758 Q 43.883 54.758 44.017 54.714 Q 44.151 54.67 44.261 54.595 L 44.393 54.833 Q 44.252 54.93 44.078 54.991 Q 43.905 55.053 43.685 55.053 Z M 47.05 55.053 Q 46.667 55.053 46.375 54.875 Q 46.082 54.696 45.915 54.362 Q 45.748 54.028 45.748 53.557 Q 45.748 53.209 45.847 52.932 Q 45.946 52.655 46.124 52.459 Q 46.302 52.263 46.544 52.162 Q 46.786 52.061 47.072 52.061 Q 47.371 52.061 47.576 52.171 Q 47.78 52.281 47.904 52.417 L 47.701 52.646 Q 47.596 52.532 47.448 52.457 Q 47.301 52.382 47.081 52.382 Q 46.79 52.382 46.575 52.525 Q 46.359 52.668 46.243 52.928 Q 46.126 53.187 46.126 53.548 Q 46.126 53.913 46.238 54.177 Q 46.35 54.441 46.564 54.586 Q 46.777 54.732 47.085 54.732 Q 47.239 54.732 47.38 54.685 Q 47.521 54.639 47.604 54.56 L 47.604 53.808 L 46.993 53.808 L 46.993 53.504 L 47.939 53.504 L 47.939 54.718 Q 47.802 54.864 47.571 54.958 Q 47.34 55.053 47.05 55.053 Z M 49.22 55.053 Q 48.881 55.053 48.725 54.839 Q 48.569 54.626 48.569 54.217 L 48.569 52.862 L 48.93 52.862 L 48.93 54.168 Q 48.93 54.468 49.024 54.602 Q 49.119 54.736 49.33 54.736 Q 49.493 54.736 49.623 54.65 Q 49.752 54.564 49.906 54.38 L 49.906 52.862 L 50.267 52.862 L 50.267 55 L 49.968 55 L 49.937 54.666 L 49.924 54.666 Q 49.779 54.842 49.609 54.947 Q 49.44 55.053 49.22 55.053 Z M 50.989 55 L 50.989 52.862 L 51.349 52.862 L 51.349 55 Z M 51.169 52.422 Q 51.063 52.422 50.995 52.356 Q 50.927 52.29 50.927 52.184 Q 50.927 52.078 50.995 52.012 Q 51.063 51.946 51.169 51.946 Q 51.275 51.946 51.343 52.012 Q 51.411 52.078 51.411 52.184 Q 51.411 52.29 51.343 52.356 Q 51.275 52.422 51.169 52.422 Z M 52.071 55 L 52.071 52.862 L 52.37 52.862 L 52.401 53.17 L 52.414 53.17 Q 52.568 53.016 52.739 52.912 Q 52.911 52.809 53.131 52.809 Q 53.47 52.809 53.626 53.022 Q 53.782 53.236 53.782 53.645 L 53.782 55 L 53.421 55 L 53.421 53.693 Q 53.421 53.39 53.327 53.255 Q 53.232 53.121 53.017 53.121 Q 52.854 53.121 52.724 53.205 Q 52.594 53.288 52.431 53.451 L 52.431 55 Z M 54.97 55.053 Q 54.794 55.053 54.651 54.98 Q 54.508 54.908 54.425 54.773 Q 54.341 54.639 54.341 54.446 Q 54.341 54.085 54.658 53.9 Q 54.975 53.715 55.661 53.64 Q 55.657 53.508 55.619 53.385 Q 55.582 53.262 55.485 53.187 Q 55.388 53.112 55.217 53.112 Q 55.032 53.112 54.869 53.181 Q 54.706 53.249 54.579 53.332 L 54.438 53.086 Q 54.535 53.02 54.667 52.956 Q 54.799 52.892 54.953 52.851 Q 55.107 52.809 55.278 52.809 Q 55.538 52.809 55.703 52.917 Q 55.868 53.024 55.945 53.222 Q 56.022 53.42 56.022 53.689 L 56.022 55 L 55.723 55 L 55.692 54.745 L 55.679 54.745 Q 55.525 54.872 55.349 54.963 Q 55.173 55.053 54.97 55.053 Z M 55.071 54.754 Q 55.23 54.754 55.368 54.683 Q 55.507 54.613 55.661 54.476 L 55.661 53.9 Q 55.3 53.944 55.091 54.012 Q 54.882 54.08 54.79 54.182 Q 54.697 54.283 54.697 54.424 Q 54.697 54.6 54.807 54.677 Q 54.917 54.754 55.071 54.754 Z M 56.694 55 L 56.694 52.862 L 56.994 52.862 L 57.024 53.17 L 57.038 53.17 Q 57.192 53.016 57.363 52.912 Q 57.535 52.809 57.755 52.809 Q 58.094 52.809 58.25 53.022 Q 58.406 53.236 58.406 53.645 L 58.406 55 L 58.045 55 L 58.045 53.693 Q 58.045 53.39 57.951 53.255 Q 57.856 53.121 57.64 53.121 Q 57.478 53.121 57.348 53.205 Q 57.218 53.288 57.055 53.451 L 57.055 55 Z M 59.833 55.053 Q 59.428 55.053 59.188 54.76 Q 58.948 54.468 58.948 53.935 Q 58.948 53.588 59.078 53.335 Q 59.208 53.082 59.419 52.945 Q 59.63 52.809 59.877 52.809 Q 60.066 52.809 60.2 52.873 Q 60.334 52.936 60.475 53.055 L 60.457 52.69 L 60.457 51.867 L 60.823 51.867 L 60.823 55 L 60.523 55 L 60.493 54.749 L 60.479 54.749 Q 60.356 54.872 60.189 54.963 Q 60.022 55.053 59.833 55.053 Z M 59.912 54.749 Q 60.061 54.749 60.193 54.674 Q 60.325 54.6 60.457 54.454 L 60.457 53.337 Q 60.325 53.214 60.198 53.163 Q 60.07 53.112 59.938 53.112 Q 59.767 53.112 59.628 53.216 Q 59.489 53.319 59.406 53.502 Q 59.322 53.684 59.322 53.931 Q 59.322 54.314 59.476 54.531 Q 59.63 54.749 59.912 54.749 Z" style="fill: rgb(122, 122, 122);"/>
    <path d="M 33.664 60.5 L 33.664 60.201 L 34.306 60.201 L 34.306 58.133 L 33.796 58.133 L 33.796 57.9 Q 33.985 57.864 34.13 57.814 Q 34.276 57.763 34.39 57.693 L 34.667 57.693 L 34.667 60.201 L 35.248 60.201 L 35.248 60.5 Z M 36.603 60.553 Q 36.339 60.553 36.13 60.454 Q 35.921 60.355 35.802 60.179 Q 35.683 60.003 35.683 59.783 Q 35.683 59.598 35.76 59.455 Q 35.837 59.312 35.958 59.204 Q 36.079 59.096 36.211 59.026 L 36.211 59.008 Q 36.057 58.898 35.938 58.74 Q 35.819 58.582 35.819 58.362 Q 35.819 58.146 35.925 57.983 Q 36.031 57.82 36.209 57.73 Q 36.387 57.64 36.616 57.64 Q 36.981 57.64 37.194 57.849 Q 37.408 58.058 37.408 58.388 Q 37.408 58.533 37.346 58.663 Q 37.285 58.793 37.197 58.896 Q 37.109 59 37.021 59.066 L 37.021 59.083 Q 37.144 59.154 37.256 59.25 Q 37.368 59.347 37.439 59.481 Q 37.509 59.616 37.509 59.805 Q 37.509 60.012 37.397 60.181 Q 37.285 60.35 37.08 60.452 Q 36.875 60.553 36.603 60.553 Z M 36.801 58.969 Q 36.946 58.841 37.021 58.7 Q 37.095 58.56 37.095 58.406 Q 37.095 58.269 37.038 58.157 Q 36.981 58.045 36.871 57.977 Q 36.761 57.908 36.607 57.908 Q 36.413 57.908 36.284 58.034 Q 36.154 58.159 36.154 58.362 Q 36.154 58.529 36.244 58.639 Q 36.334 58.749 36.482 58.826 Q 36.629 58.903 36.801 58.969 Z M 36.611 60.284 Q 36.774 60.284 36.897 60.223 Q 37.021 60.161 37.091 60.049 Q 37.161 59.937 37.161 59.792 Q 37.161 59.611 37.056 59.497 Q 36.95 59.382 36.779 59.301 Q 36.607 59.22 36.4 59.136 Q 36.233 59.246 36.121 59.4 Q 36.009 59.554 36.009 59.748 Q 36.009 59.902 36.088 60.023 Q 36.167 60.144 36.303 60.214 Q 36.44 60.284 36.611 60.284 Z M 38.869 60.553 Q 38.662 60.553 38.486 60.469 Q 38.31 60.386 38.18 60.216 Q 38.051 60.047 37.976 59.794 Q 37.901 59.541 37.901 59.202 Q 37.901 58.78 37.989 58.483 Q 38.077 58.186 38.227 58.001 Q 38.376 57.816 38.568 57.728 Q 38.759 57.64 38.97 57.64 Q 39.199 57.64 39.364 57.726 Q 39.529 57.812 39.648 57.939 L 39.445 58.164 Q 39.362 58.062 39.239 58.003 Q 39.115 57.944 38.983 57.944 Q 38.785 57.944 38.616 58.062 Q 38.447 58.181 38.345 58.456 Q 38.244 58.731 38.244 59.202 Q 38.244 59.55 38.317 59.787 Q 38.389 60.025 38.53 60.146 Q 38.671 60.267 38.869 60.267 Q 39.005 60.267 39.118 60.19 Q 39.23 60.113 39.294 59.974 Q 39.357 59.836 39.357 59.651 Q 39.357 59.47 39.3 59.336 Q 39.243 59.202 39.129 59.129 Q 39.014 59.057 38.838 59.057 Q 38.702 59.057 38.541 59.147 Q 38.381 59.237 38.235 59.453 L 38.222 59.167 Q 38.359 58.991 38.539 58.887 Q 38.719 58.784 38.9 58.784 Q 39.142 58.784 39.322 58.881 Q 39.503 58.978 39.602 59.171 Q 39.701 59.365 39.701 59.651 Q 39.701 59.919 39.586 60.122 Q 39.472 60.324 39.283 60.438 Q 39.093 60.553 38.869 60.553 Z M 40.906 60.553 Q 40.681 60.553 40.51 60.498 Q 40.338 60.443 40.21 60.355 Q 40.083 60.267 39.986 60.17 L 40.162 59.932 Q 40.29 60.056 40.457 60.155 Q 40.624 60.254 40.87 60.254 Q 41.042 60.254 41.181 60.174 Q 41.319 60.095 41.403 59.952 Q 41.486 59.809 41.486 59.611 Q 41.486 59.321 41.324 59.158 Q 41.161 58.995 40.888 58.995 Q 40.747 58.995 40.642 59.039 Q 40.536 59.083 40.408 59.167 L 40.215 59.044 L 40.307 57.693 L 41.711 57.693 L 41.711 58.005 L 40.624 58.005 L 40.549 58.837 Q 40.65 58.784 40.752 58.753 Q 40.853 58.722 40.98 58.722 Q 41.222 58.722 41.42 58.815 Q 41.618 58.907 41.735 59.103 Q 41.852 59.299 41.852 59.602 Q 41.852 59.906 41.717 60.119 Q 41.583 60.333 41.368 60.443 Q 41.152 60.553 40.906 60.553 Z M 43.124 59.519 L 43.124 59.268 L 44.875 59.268 L 44.875 59.519 Z M 46.111 60.5 L 46.111 60.28 Q 46.529 59.866 46.826 59.547 Q 47.123 59.228 47.277 58.969 Q 47.431 58.709 47.431 58.485 Q 47.431 58.243 47.299 58.089 Q 47.167 57.935 46.898 57.935 Q 46.722 57.935 46.573 58.032 Q 46.423 58.128 46.3 58.274 L 46.097 58.076 Q 46.273 57.878 46.474 57.759 Q 46.674 57.64 46.942 57.64 Q 47.202 57.64 47.391 57.743 Q 47.58 57.847 47.681 58.032 Q 47.783 58.216 47.783 58.463 Q 47.783 58.736 47.631 59.004 Q 47.479 59.272 47.215 59.567 Q 46.951 59.862 46.608 60.214 Q 46.722 60.201 46.845 60.194 Q 46.969 60.188 47.079 60.188 L 47.923 60.188 L 47.923 60.5 Z M 49.217 60.553 Q 48.795 60.553 48.555 60.172 Q 48.315 59.792 48.315 59.088 Q 48.315 58.379 48.555 58.01 Q 48.795 57.64 49.217 57.64 Q 49.635 57.64 49.875 58.012 Q 50.115 58.384 50.115 59.088 Q 50.115 59.792 49.875 60.172 Q 49.635 60.553 49.217 60.553 Z M 49.217 60.262 Q 49.38 60.262 49.503 60.139 Q 49.627 60.016 49.695 59.756 Q 49.763 59.497 49.763 59.088 Q 49.763 58.674 49.695 58.419 Q 49.627 58.164 49.503 58.047 Q 49.38 57.93 49.217 57.93 Q 49.05 57.93 48.927 58.047 Q 48.804 58.164 48.736 58.419 Q 48.667 58.674 48.667 59.088 Q 48.667 59.497 48.736 59.756 Q 48.804 60.016 48.927 60.139 Q 49.05 60.262 49.217 60.262 Z M 50.484 60.5 L 50.484 60.28 Q 50.902 59.866 51.199 59.547 Q 51.496 59.228 51.65 58.969 Q 51.804 58.709 51.804 58.485 Q 51.804 58.243 51.672 58.089 Q 51.54 57.935 51.272 57.935 Q 51.096 57.935 50.946 58.032 Q 50.796 58.128 50.673 58.274 L 50.471 58.076 Q 50.647 57.878 50.847 57.759 Q 51.047 57.64 51.316 57.64 Q 51.575 57.64 51.764 57.743 Q 51.954 57.847 52.055 58.032 Q 52.156 58.216 52.156 58.463 Q 52.156 58.736 52.004 59.004 Q 51.852 59.272 51.588 59.567 Q 51.324 59.862 50.981 60.214 Q 51.096 60.201 51.219 60.194 Q 51.342 60.188 51.452 60.188 L 52.297 60.188 L 52.297 60.5 Z M 53.833 60.5 L 53.833 58.621 Q 53.833 58.511 53.842 58.351 Q 53.85 58.19 53.855 58.08 L 53.837 58.08 Q 53.784 58.181 53.727 58.276 Q 53.67 58.37 53.608 58.476 L 52.953 59.435 L 54.559 59.435 L 54.559 59.726 L 52.57 59.726 L 52.57 59.488 L 53.771 57.693 L 54.176 57.693 L 54.176 60.5 Z" style="fill: rgb(122, 122, 122);"/>
    <path d="M 30.837 66.04 Q 30.499 66.04 30.362 65.842 Q 30.226 65.644 30.226 65.327 L 30.226 64.156 L 29.909 64.156 L 29.909 63.884 L 30.243 63.862 L 30.287 63.175 L 30.591 63.175 L 30.591 63.862 L 31.172 63.862 L 31.172 64.156 L 30.591 64.156 L 30.591 65.331 Q 30.591 65.525 30.664 65.635 Q 30.736 65.745 30.921 65.745 Q 30.978 65.745 31.04 65.734 Q 31.101 65.723 31.163 65.692 L 31.242 65.947 Q 31.159 65.987 31.053 66.013 Q 30.947 66.04 30.837 66.04 Z M 32.456 66.053 Q 32.17 66.053 31.935 65.919 Q 31.699 65.784 31.563 65.536 Q 31.426 65.287 31.426 64.931 Q 31.426 64.583 31.567 64.332 Q 31.708 64.082 31.928 63.945 Q 32.148 63.809 32.394 63.809 Q 32.667 63.809 32.859 63.934 Q 33.05 64.06 33.147 64.284 Q 33.244 64.508 33.244 64.812 Q 33.244 64.869 33.241 64.922 Q 33.239 64.975 33.226 65.028 L 31.686 65.028 L 31.686 64.742 L 32.918 64.742 Q 32.918 64.434 32.784 64.269 Q 32.65 64.104 32.399 64.104 Q 32.254 64.104 32.113 64.185 Q 31.972 64.266 31.882 64.447 Q 31.792 64.627 31.792 64.926 Q 31.792 65.199 31.886 65.384 Q 31.981 65.569 32.144 65.663 Q 32.306 65.758 32.5 65.758 Q 32.654 65.758 32.788 65.714 Q 32.922 65.67 33.032 65.595 L 33.164 65.833 Q 33.024 65.93 32.85 65.991 Q 32.676 66.053 32.456 66.053 Z M 34.621 66.053 Q 34.335 66.053 34.107 65.921 Q 33.878 65.789 33.746 65.538 Q 33.614 65.287 33.614 64.935 Q 33.614 64.574 33.757 64.324 Q 33.9 64.073 34.135 63.941 Q 34.371 63.809 34.643 63.809 Q 34.855 63.809 35.006 63.879 Q 35.158 63.95 35.268 64.06 L 35.088 64.284 Q 35.009 64.205 34.901 64.159 Q 34.793 64.112 34.657 64.112 Q 34.467 64.112 34.316 64.216 Q 34.164 64.319 34.076 64.504 Q 33.988 64.689 33.988 64.935 Q 33.988 65.177 34.071 65.362 Q 34.155 65.547 34.305 65.65 Q 34.454 65.754 34.652 65.754 Q 34.802 65.754 34.929 65.696 Q 35.057 65.639 35.149 65.551 L 35.308 65.771 Q 35.171 65.899 35 65.976 Q 34.828 66.053 34.621 66.053 Z M 35.778 66 L 35.778 62.867 L 36.139 62.867 L 36.139 63.721 L 36.126 64.161 Q 36.28 64.016 36.449 63.912 Q 36.619 63.809 36.839 63.809 Q 37.178 63.809 37.334 64.022 Q 37.49 64.236 37.49 64.645 L 37.49 66 L 37.129 66 L 37.129 64.693 Q 37.129 64.39 37.035 64.255 Q 36.94 64.121 36.724 64.121 Q 36.562 64.121 36.432 64.205 Q 36.302 64.288 36.139 64.451 L 36.139 66 Z M 38.172 66 L 38.172 63.862 L 38.471 63.862 L 38.502 64.17 L 38.515 64.17 Q 38.669 64.016 38.841 63.912 Q 39.012 63.809 39.232 63.809 Q 39.571 63.809 39.727 64.022 Q 39.884 64.236 39.884 64.645 L 39.884 66 L 39.523 66 L 39.523 64.693 Q 39.523 64.39 39.428 64.255 Q 39.334 64.121 39.118 64.121 Q 38.955 64.121 38.825 64.205 Q 38.696 64.288 38.533 64.451 L 38.533 66 Z M 40.768 66.053 Q 40.662 66.053 40.583 65.976 Q 40.504 65.899 40.504 65.78 Q 40.504 65.652 40.583 65.575 Q 40.662 65.498 40.768 65.498 Q 40.878 65.498 40.953 65.575 Q 41.027 65.652 41.027 65.78 Q 41.027 65.899 40.953 65.976 Q 40.878 66.053 40.768 66.053 Z M 42.589 66 L 42.589 63.114 L 43.412 63.114 Q 43.738 63.114 43.98 63.195 Q 44.222 63.276 44.358 63.461 Q 44.495 63.646 44.495 63.963 Q 44.495 64.266 44.36 64.462 Q 44.226 64.658 43.986 64.757 Q 43.747 64.856 43.43 64.856 L 42.955 64.856 L 42.955 66 Z M 42.955 64.557 L 43.386 64.557 Q 43.764 64.557 43.947 64.412 Q 44.129 64.266 44.129 63.963 Q 44.129 63.65 43.938 63.529 Q 43.747 63.408 43.368 63.408 L 42.955 63.408 Z M 45.045 66 L 45.045 63.862 L 45.344 63.862 L 45.375 64.249 L 45.388 64.249 Q 45.493 64.046 45.652 63.928 Q 45.81 63.809 45.995 63.809 Q 46.065 63.809 46.118 63.818 Q 46.171 63.826 46.224 63.853 L 46.145 64.161 Q 46.096 64.148 46.054 64.141 Q 46.013 64.134 45.947 64.134 Q 45.81 64.134 45.663 64.244 Q 45.515 64.354 45.405 64.627 L 45.405 66 Z M 47.359 66.053 Q 47.099 66.053 46.872 65.921 Q 46.646 65.789 46.507 65.538 Q 46.369 65.287 46.369 64.935 Q 46.369 64.574 46.507 64.324 Q 46.646 64.073 46.872 63.941 Q 47.099 63.809 47.359 63.809 Q 47.623 63.809 47.847 63.941 Q 48.071 64.073 48.21 64.324 Q 48.349 64.574 48.349 64.935 Q 48.349 65.287 48.21 65.538 Q 48.071 65.789 47.847 65.921 Q 47.623 66.053 47.359 66.053 Z M 47.359 65.754 Q 47.543 65.754 47.684 65.65 Q 47.825 65.547 47.9 65.362 Q 47.975 65.177 47.975 64.935 Q 47.975 64.689 47.9 64.502 Q 47.825 64.315 47.684 64.211 Q 47.543 64.108 47.359 64.108 Q 47.174 64.108 47.035 64.211 Q 46.897 64.315 46.82 64.502 Q 46.743 64.689 46.743 64.935 Q 46.743 65.177 46.82 65.362 Q 46.897 65.547 47.035 65.65 Q 47.174 65.754 47.359 65.754 Z M 49.51 66.04 Q 49.171 66.04 49.035 65.842 Q 48.898 65.644 48.898 65.327 L 48.898 64.156 L 48.582 64.156 L 48.582 63.884 L 48.916 63.862 L 48.96 63.175 L 49.264 63.175 L 49.264 63.862 L 49.844 63.862 L 49.844 64.156 L 49.264 64.156 L 49.264 65.331 Q 49.264 65.525 49.336 65.635 Q 49.409 65.745 49.594 65.745 Q 49.651 65.745 49.712 65.734 Q 49.774 65.723 49.836 65.692 L 49.915 65.947 Q 49.831 65.987 49.726 66.013 Q 49.62 66.04 49.51 66.04 Z M 51.094 66.053 Q 50.835 66.053 50.608 65.921 Q 50.382 65.789 50.243 65.538 Q 50.104 65.287 50.104 64.935 Q 50.104 64.574 50.243 64.324 Q 50.382 64.073 50.608 63.941 Q 50.835 63.809 51.094 63.809 Q 51.358 63.809 51.583 63.941 Q 51.807 64.073 51.946 64.324 Q 52.084 64.574 52.084 64.935 Q 52.084 65.287 51.946 65.538 Q 51.807 65.789 51.583 65.921 Q 51.358 66.053 51.094 66.053 Z M 51.094 65.754 Q 51.279 65.754 51.42 65.65 Q 51.561 65.547 51.636 65.362 Q 51.71 65.177 51.71 64.935 Q 51.71 64.689 51.636 64.502 Q 51.561 64.315 51.42 64.211 Q 51.279 64.108 51.094 64.108 Q 50.91 64.108 50.771 64.211 Q 50.632 64.315 50.555 64.502 Q 50.478 64.689 50.478 64.935 Q 50.478 65.177 50.555 65.362 Q 50.632 65.547 50.771 65.65 Q 50.91 65.754 51.094 65.754 Z M 53.246 66.04 Q 52.907 66.04 52.771 65.842 Q 52.634 65.644 52.634 65.327 L 52.634 64.156 L 52.317 64.156 L 52.317 63.884 L 52.652 63.862 L 52.696 63.175 L 52.999 63.175 L 52.999 63.862 L 53.58 63.862 L 53.58 64.156 L 52.999 64.156 L 52.999 65.331 Q 52.999 65.525 53.072 65.635 Q 53.145 65.745 53.329 65.745 Q 53.387 65.745 53.448 65.734 Q 53.51 65.723 53.571 65.692 L 53.651 65.947 Q 53.567 65.987 53.461 66.013 Q 53.356 66.04 53.246 66.04 Z M 54.095 66.92 Q 54.024 66.92 53.96 66.906 Q 53.897 66.893 53.844 66.876 L 53.923 66.594 Q 53.963 66.607 54.002 66.614 Q 54.042 66.62 54.077 66.62 Q 54.262 66.62 54.378 66.491 Q 54.495 66.361 54.561 66.163 L 54.609 66.004 L 53.751 63.862 L 54.125 63.862 L 54.561 65.045 Q 54.614 65.182 54.667 65.34 Q 54.719 65.498 54.768 65.648 L 54.785 65.648 Q 54.834 65.498 54.88 65.342 Q 54.926 65.186 54.966 65.045 L 55.349 63.862 L 55.701 63.862 L 54.895 66.176 Q 54.821 66.387 54.715 66.557 Q 54.609 66.726 54.46 66.823 Q 54.31 66.92 54.095 66.92 Z M 56.114 66.902 L 56.114 63.862 L 56.413 63.862 L 56.444 64.108 L 56.457 64.108 Q 56.603 63.985 56.779 63.897 Q 56.955 63.809 57.139 63.809 Q 57.412 63.809 57.601 63.943 Q 57.791 64.077 57.887 64.321 Q 57.984 64.566 57.984 64.9 Q 57.984 65.261 57.854 65.52 Q 57.725 65.78 57.513 65.916 Q 57.302 66.053 57.06 66.053 Q 56.915 66.053 56.765 65.987 Q 56.616 65.921 56.466 65.806 L 56.475 66.18 L 56.475 66.902 Z M 56.999 65.749 Q 57.175 65.749 57.313 65.648 Q 57.452 65.547 57.531 65.355 Q 57.61 65.164 57.61 64.9 Q 57.61 64.667 57.553 64.489 Q 57.496 64.31 57.373 64.211 Q 57.249 64.112 57.047 64.112 Q 56.915 64.112 56.774 64.185 Q 56.633 64.258 56.475 64.403 L 56.475 65.525 Q 56.625 65.648 56.759 65.699 Q 56.893 65.749 56.999 65.749 Z" style="fill: rgb(122, 122, 122);"/>
  </g>
</svg>